<svg width="251" height="185" viewBox="0 0 251 185" fill="none" xmlns="http://www.w3.org/2000/svg">
<rect width="251" height="185" fill="#FF4939"/>
<path d="M23.008 164.736H21.744V109.12H23.008V164.736ZM25.536 166H24.272V109.12H25.536V166ZM28.064 166H26.8V109.12H28.064V166ZM30.592 166H29.328V109.12H30.592V166ZM34.384 166H33.12V109.12H34.384V166ZM46.392 164.104H35.016V162.84H46.392V164.104ZM46.392 161.576H35.016V160.312H46.392V161.576ZM46.392 159.048H35.016V157.784H46.392V159.048ZM46.392 155.256H35.016V153.992H46.392V155.256ZM46.392 152.728H35.016V151.464H46.392V152.728ZM46.392 150.2H35.016V148.936H46.392V150.2ZM46.392 147.672H35.016V146.408H46.392V147.672ZM46.392 143.88H35.016V142.616H46.392V143.88ZM46.392 141.352H35.016V140.088H46.392V141.352ZM46.392 138.824H35.016V137.56H46.392V138.824ZM46.392 136.296H35.016V135.032H46.392V136.296ZM46.392 132.504H35.016V131.24H46.392V132.504ZM46.392 129.976H35.016V128.712H46.392V129.976ZM46.392 127.448H35.016V126.184H46.392V127.448ZM46.392 124.92H35.016V123.656H46.392V124.92ZM46.392 121.128H35.016V119.864H46.392V121.128ZM46.392 118.6H35.016V117.336H46.392V118.6ZM46.392 116.072H35.016V114.808H46.392V116.072ZM46.392 113.544H35.016V112.28H46.392V113.544ZM46.392 109.752H35.016V108.488H46.392V109.752ZM50.816 166H49.552V124.288H50.816V166ZM53.344 166H52.08V124.288H53.344V166ZM55.872 166H54.608V124.288H55.872V166ZM59.664 163.472H58.4V124.288H59.664V163.472ZM62.192 131.872H60.928V124.288H62.192V131.872ZM64.72 131.872H63.456V124.288H64.72V131.872ZM67.248 131.872H65.984V124.288H67.248V131.872ZM71.04 131.872H69.776V124.288H71.04V131.872ZM70.408 122.392H47.656V121.128H70.408V122.392ZM70.408 118.6H47.656V117.336H70.408V118.6ZM70.408 116.072H47.656V114.808H70.408V116.072ZM70.408 113.544H47.656V112.28H70.408V113.544ZM70.408 111.016H47.656V109.752H70.408V111.016ZM73.568 131.872H72.304V112.912H73.568V131.872ZM75.464 129.976H74.2V128.712H75.464V129.976ZM75.464 127.448H74.2V126.184H75.464V127.448ZM75.464 124.92H74.2V123.656H75.464V124.92ZM75.464 121.128H74.2V119.864H75.464V121.128ZM75.464 118.6H74.2V117.336H75.464V118.6ZM75.464 116.072H74.2V114.808H75.464V116.072ZM73.568 112.912H72.304V110.384H73.568V112.912ZM78.624 131.872H77.36V116.704H78.624V131.872ZM81.152 131.872H79.888V116.704H81.152V131.872ZM84.944 130.608H83.68V116.704H84.944V130.608ZM87.472 130.608H86.208V116.704H87.472V130.608ZM90 130.608H88.736V116.704H90V130.608ZM92.528 129.344H91.264V116.704H92.528V129.344ZM96.32 128.08H95.056V116.704H96.32V128.08ZM98.848 126.816H97.584V116.704H98.848V126.816ZM101.376 125.552H100.112V116.704H101.376V125.552ZM103.904 124.288H102.64V116.704H103.904V124.288ZM107.696 121.76H106.432V116.704H107.696V121.76ZM110.224 119.232H108.96V116.704H110.224V119.232ZM78.624 115.44H77.36V109.12H78.624V115.44ZM81.152 115.44H79.888V109.12H81.152V115.44ZM84.944 115.44H83.68V109.12H84.944V115.44ZM87.472 115.44H86.208V109.12H87.472V115.44ZM90 115.44H88.736V109.12H90V115.44ZM92.528 115.44H91.264V109.12H92.528V115.44ZM96.32 115.44H95.056V109.12H96.32V115.44ZM98.848 115.44H97.584V109.12H98.848V115.44ZM114.648 113.544H100.744V112.28H114.648V113.544ZM115.912 111.016H100.744V109.752H115.912V111.016ZM23.008 107.856H21.744V77.52H23.008V107.856ZM25.536 107.856H24.272V77.52H25.536V107.856ZM28.064 107.856H26.8V77.52H28.064V107.856ZM30.592 107.856H29.328V77.52H30.592V107.856ZM34.384 107.856H33.12V77.52H34.384V107.856ZM36.912 107.856H35.648V77.52H36.912V107.856ZM39.44 107.856H38.176V77.52H39.44V107.856ZM41.968 107.856H40.704V77.52H41.968V107.856ZM45.76 107.856H44.496V77.52H45.76V107.856ZM48.288 107.856H47.024V77.52H48.288V107.856ZM50.816 107.856H49.552V77.52H50.816V107.856ZM53.344 107.856H52.08V77.52H53.344V107.856ZM57.136 107.856H55.872V77.52H57.136V107.856ZM59.664 107.856H58.4V77.52H59.664V107.856ZM62.192 107.856H60.928V102.8H62.192V107.856ZM62.192 85.104H60.928V77.52H62.192V85.104ZM64.72 107.856H63.456V102.8H64.72V107.856ZM64.72 85.104H63.456V77.52H64.72V85.104ZM68.512 107.856H67.248V102.8H68.512V107.856ZM68.512 85.104H67.248V77.52H68.512V85.104ZM71.04 107.856H69.776V102.8H71.04V107.856ZM71.04 85.104H69.776V77.52H71.04V85.104ZM73.568 107.856H72.304V100.272H73.568V107.856ZM73.568 86.368H72.304V77.52H73.568V86.368ZM76.096 107.856H74.832V96.48H76.096V107.856ZM76.096 87.632H74.832V77.52H76.096V87.632ZM79.888 107.856H78.624V77.52H79.888V107.856ZM82.416 107.856H81.152V77.52H82.416V107.856ZM84.944 107.856H83.68V77.52H84.944V107.856ZM87.472 107.856H86.208V77.52H87.472V107.856ZM91.264 107.856H90V77.52H91.264V107.856ZM93.16 105.96H91.896V104.696H93.16V105.96ZM93.16 103.432H91.896V102.168H93.16V103.432ZM93.16 100.904H91.896V99.64H93.16V100.904ZM93.16 97.112H91.896V95.848H93.16V97.112ZM93.16 94.584H91.896V93.32H93.16V94.584ZM93.16 92.056H91.896V90.792H93.16V92.056ZM93.16 89.528H91.896V88.264H93.16V89.528ZM93.16 85.736H91.896V84.472H93.16V85.736ZM93.16 83.208H91.896V81.944H93.16V83.208ZM93.16 80.68H91.896V79.416H93.16V80.68ZM97.584 107.856H96.32V88.896H97.584V107.856ZM98.216 85.736H94.424V84.472H98.216V85.736ZM98.216 83.208H94.424V81.944H98.216V83.208ZM98.216 80.68H94.424V79.416H98.216V80.68ZM101.376 107.856H100.112V82.576H101.376V107.856ZM103.904 107.856H102.64V82.576H103.904V107.856ZM107.696 107.856H106.432V82.576H107.696V107.856ZM110.224 107.856H108.96V82.576H110.224V107.856ZM112.752 107.856H111.488V82.576H112.752V107.856ZM117.176 105.96H115.912V104.696H117.176V105.96ZM118.44 103.432H115.912V102.168H118.44V103.432ZM118.44 100.904H115.912V99.64H118.44V100.904ZM118.44 97.112H115.912V95.848H118.44V97.112ZM118.44 94.584H115.912V93.32H118.44V94.584ZM118.44 92.056H115.912V90.792H118.44V92.056ZM118.44 89.528H115.912V88.264H118.44V89.528ZM117.176 85.736H115.912V84.472H117.176V85.736ZM101.376 82.576H100.112V78.784H101.376V82.576ZM103.904 82.576H102.64V78.784H103.904V82.576ZM107.696 82.576H106.432V78.784H107.696V82.576ZM110.224 82.576H108.96V78.784H110.224V82.576ZM112.752 82.576H111.488V78.784H112.752V82.576ZM115.28 82.576H114.016V78.784H115.28V82.576ZM23.008 77.52H21.744V58.56H23.008V77.52ZM25.536 77.52H24.272V58.56H25.536V77.52ZM28.064 77.52H26.8V58.56H28.064V77.52ZM30.592 77.52H29.328V58.56H30.592V77.52ZM34.384 77.52H33.12V58.56H34.384V77.52ZM36.912 77.52H35.648V58.56H36.912V77.52ZM39.44 77.52H38.176V58.56H39.44V77.52ZM41.968 77.52H40.704V58.56H41.968V77.52ZM45.76 77.52H44.496V58.56H45.76V77.52ZM48.288 77.52H47.024V58.56H48.288V77.52ZM50.816 77.52H49.552V58.56H50.816V77.52ZM53.344 77.52H52.08V58.56H53.344V77.52ZM57.136 77.52H55.872V58.56H57.136V77.52ZM59.664 77.52H58.4V58.56H59.664V77.52ZM62.192 77.52H60.928V58.56H62.192V77.52ZM64.72 77.52H63.456V58.56H64.72V77.52ZM68.512 77.52H67.248V58.56H68.512V77.52ZM71.04 77.52H69.776V58.56H71.04V77.52ZM73.568 77.52H72.304V58.56H73.568V77.52ZM76.096 77.52H74.832V58.56H76.096V77.52ZM86.84 75.624H77.992V74.36H86.84V75.624ZM86.84 73.096H77.992V71.832H86.84V73.096ZM86.84 69.304H77.992V68.04H86.84V69.304ZM86.84 66.776H77.992V65.512H86.84V66.776ZM86.84 64.248H77.992V62.984H86.84V64.248ZM86.84 61.72H77.992V60.456H86.84V61.72ZM90 77.52H88.736V62.352H90V77.52ZM92.528 77.52H91.264V62.352H92.528V77.52ZM96.32 77.52H95.056V62.352H96.32V77.52ZM98.848 77.52H97.584V62.352H98.848V77.52ZM101.376 77.52H100.112V62.352H101.376V77.52ZM103.904 77.52H102.64V64.88H103.904V77.52ZM107.696 77.52H106.432V66.144H107.696V77.52ZM110.224 77.52H108.96V68.672H110.224V77.52ZM112.752 77.52H111.488V72.464H112.752V77.52ZM94.424 60.456H86.84V59.192H94.424V60.456ZM23.008 58.56H21.744V57.296H23.008V58.56ZM25.536 58.56H24.272V56.032H25.536V58.56ZM28.064 58.56H26.8V56.032H28.064V58.56ZM30.592 58.56H29.328V56.032H30.592V58.56ZM34.384 58.56H33.12V56.032H34.384V58.56ZM36.912 58.56H35.648V56.032H36.912V58.56ZM39.44 58.56H38.176V56.032H39.44V58.56ZM41.968 58.56H40.704V56.032H41.968V58.56ZM45.76 58.56H44.496V56.032H45.76V58.56ZM48.288 58.56H47.024V56.032H48.288V58.56ZM50.816 58.56H49.552V56.032H50.816V58.56ZM53.344 58.56H52.08V56.032H53.344V58.56ZM57.136 58.56H55.872V56.032H57.136V58.56ZM59.664 58.56H58.4V56.032H59.664V58.56ZM62.192 58.56H60.928V56.032H62.192V58.56ZM64.72 58.56H63.456V56.032H64.72V58.56ZM68.512 58.56H67.248V56.032H68.512V58.56ZM71.04 58.56H69.776V56.032H71.04V58.56ZM73.568 58.56H72.304V56.032H73.568V58.56ZM76.096 58.56H74.832V56.032H76.096V58.56ZM79.888 58.56H78.624V56.032H79.888V58.56ZM82.416 58.56H81.152V57.296H82.416V58.56ZM84.944 58.56H83.68V57.296H84.944V58.56ZM87.472 58.56H86.208V57.296H87.472V58.56ZM130.618 139.456H129.354V96.48H130.618V139.456ZM133.146 145.776H131.882V96.48H133.146V145.776ZM136.938 149.568H135.674V96.48H136.938V149.568ZM139.466 153.36H138.202V96.48H139.466V153.36ZM141.994 155.888H140.73V96.48H141.994V155.888ZM144.522 158.416H143.258V96.48H144.522V158.416ZM148.314 160.944H147.05V96.48H148.314V160.944ZM150.842 162.208H149.578V96.48H150.842V162.208ZM153.37 163.472H152.106V96.48H153.37V163.472ZM155.898 164.736H154.634V96.48H155.898V164.736ZM159.69 164.736H158.426V96.48H159.69V164.736ZM166.642 165.368H161.586V164.104H166.642V165.368ZM166.642 162.84H161.586V161.576H166.642V162.84ZM166.642 160.312H161.586V159.048H166.642V160.312ZM166.642 157.784H161.586V156.52H166.642V157.784ZM166.642 153.992H161.586V152.728H166.642V153.992ZM166.642 151.464H161.586V150.2H166.642V151.464ZM166.642 148.936H161.586V147.672H166.642V148.936ZM166.642 146.408H161.586V145.144H166.642V146.408ZM166.642 142.616H161.586V141.352H166.642V142.616ZM166.642 140.088H161.586V138.824H166.642V140.088ZM166.642 137.56H161.586V136.296H166.642V137.56ZM166.642 135.032H161.586V133.768H166.642V135.032ZM166.642 131.24H161.586V129.976H166.642V131.24ZM166.642 128.712H161.586V127.448H166.642V128.712ZM166.642 126.184H161.586V124.92H166.642V126.184ZM166.642 123.656H161.586V122.392H166.642V123.656ZM166.642 119.864H161.586V118.6H166.642V119.864ZM166.642 117.336H161.586V116.072H166.642V117.336ZM166.642 114.808H161.586V113.544H166.642V114.808ZM166.642 112.28H161.586V111.016H166.642V112.28ZM166.642 108.488H161.586V107.224H166.642V108.488ZM166.642 105.96H161.586V104.696H166.642V105.96ZM166.642 103.432H161.586V102.168H166.642V103.432ZM166.642 100.904H161.586V99.64H166.642V100.904ZM166.642 97.112H161.586V95.848H166.642V97.112ZM171.066 166H169.802V131.872H171.066V166ZM173.594 166H172.33V134.4H173.594V166ZM176.122 166H174.858V136.928H176.122V166ZM178.65 166H177.386V136.928H178.65V166ZM182.442 166H181.178V136.928H182.442V166ZM184.97 166H183.706V136.928H184.97V166ZM187.498 166H186.234V135.664H187.498V166ZM190.026 166H188.762V133.136H190.026V166ZM193.818 166H192.554V129.344H193.818V166ZM196.346 166H195.082V126.816H196.346V166ZM198.874 166H197.61V124.288H198.874V166ZM201.402 164.736H200.138V124.288H201.402V164.736ZM205.194 164.736H203.93V124.288H205.194V164.736ZM169.17 103.432H167.906V102.168H169.17V103.432ZM169.17 99.64H167.906V98.376H169.17V99.64ZM208.986 163.472H207.722V126.816H208.986V163.472ZM210.882 162.84H208.354V161.576H210.882V162.84ZM212.146 157.784H208.354V156.52H212.146V157.784ZM210.882 151.464H208.354V150.2H210.882V151.464ZM212.146 146.408H208.354V145.144H212.146V146.408ZM210.882 140.088H208.354V138.824H210.882V140.088ZM212.146 135.032H208.354V133.768H212.146V135.032ZM208.986 125.552H207.722V124.288H208.986V125.552ZM208.354 98.376H205.826V97.112H208.354V98.376ZM212.778 160.944H211.514V124.288H212.778V160.944ZM215.306 159.68H214.042V124.288H215.306V159.68ZM217.834 157.152H216.57V124.288H217.834V157.152ZM222.258 153.992H220.994V152.728H222.258V153.992ZM223.522 151.464H220.994V150.2H223.522V151.464ZM223.522 148.936H220.994V147.672H223.522V148.936ZM223.522 146.408H220.994V145.144H223.522V146.408ZM223.522 142.616H220.994V141.352H223.522V142.616ZM223.522 140.088H220.994V138.824H223.522V140.088ZM223.522 137.56H220.994V136.296H223.522V137.56ZM223.522 135.032H220.994V133.768H223.522V135.032ZM223.522 131.24H220.994V129.976H223.522V131.24ZM223.522 128.712H220.994V127.448H223.522V128.712ZM223.522 126.184H220.994V124.92H223.522V126.184ZM226.682 149.568H225.418V131.872H226.682V149.568ZM230.474 144.512H229.21V131.872H230.474V144.512ZM233.002 138.192H231.738V131.872H233.002V138.192ZM233.634 129.976H224.786V128.712H233.634V129.976ZM232.37 126.184H224.786V124.92H232.37V126.184ZM130.618 96.48H129.354V83.84H130.618V96.48ZM133.146 96.48H131.882V77.52H133.146V96.48ZM136.938 96.48H135.674V73.728H136.938V96.48ZM139.466 96.48H138.202V73.728H139.466V96.48ZM141.994 96.48H140.73V73.728H141.994V96.48ZM144.522 96.48H143.258V73.728H144.522V96.48ZM148.314 96.48H147.05V73.728H148.314V96.48ZM150.842 96.48H149.578V73.728H150.842V96.48ZM153.37 96.48H152.106V73.728H153.37V96.48ZM155.898 96.48H154.634V73.728H155.898V96.48ZM159.69 96.48H158.426V73.728H159.69V96.48ZM162.218 96.48H160.954V73.728H162.218V96.48ZM164.746 96.48H163.482V73.728H164.746V96.48ZM167.274 96.48H166.01V73.728H167.274V96.48ZM171.066 91.424H169.802V73.728H171.066V91.424ZM173.594 87.632H172.33V73.728H173.594V87.632ZM176.122 86.368H174.858V73.728H176.122V86.368ZM178.65 85.104H177.386V73.728H178.65V85.104ZM183.706 86.368H182.442V74.992H183.706V86.368ZM187.498 86.368H186.234V74.992H187.498V86.368ZM190.026 88.896H188.762V74.992H190.026V88.896ZM192.554 92.688H191.29V74.992H192.554V92.688ZM195.082 95.216H193.818V74.992H195.082V95.216ZM198.874 96.48H197.61V74.992H198.874V96.48ZM201.402 96.48H200.138V74.992H201.402V96.48ZM203.93 96.48H202.666V74.992H203.93V96.48ZM206.458 96.48H205.194V74.992H206.458V96.48ZM210.25 96.48H208.986V78.784H210.25V96.48ZM212.778 96.48H211.514V78.784H212.778V96.48ZM216.57 96.48H215.306V78.784H216.57V96.48ZM219.098 96.48H217.834V78.784H219.098V96.48ZM221.626 96.48H220.362V78.784H221.626V96.48ZM224.154 96.48H222.89V78.784H224.154V96.48ZM227.946 96.48H226.682V78.784H227.946V96.48ZM230.474 96.48H229.21V78.784H230.474V96.48ZM233.002 95.216H231.738V86.368H233.002V95.216ZM210.25 77.52H208.986V76.256H210.25V77.52ZM212.778 77.52H211.514V76.256H212.778V77.52ZM216.57 77.52H215.306V76.256H216.57V77.52ZM219.098 77.52H217.834V76.256H219.098V77.52ZM221.626 77.52H220.362V76.256H221.626V77.52ZM224.154 77.52H222.89V76.256H224.154V77.52ZM227.946 77.52H226.682V76.256H227.946V77.52ZM136.938 73.728H135.674V72.464H136.938V73.728ZM139.466 73.728H138.202V69.936H139.466V73.728ZM141.994 73.728H140.73V66.144H141.994V73.728ZM144.522 73.728H143.258V63.616H144.522V73.728ZM148.314 73.728H147.05V62.352H148.314V73.728ZM150.842 73.728H149.578V61.088H150.842V73.728ZM153.37 73.728H152.106V59.824H153.37V73.728ZM155.898 73.728H154.634V58.56H155.898V73.728ZM159.69 73.728H158.426V57.296H159.69V73.728ZM162.218 73.728H160.954V56.032H162.218V73.728ZM164.746 73.728H163.482V56.032H164.746V73.728ZM167.274 73.728H166.01V56.032H167.274V73.728ZM171.066 73.728H169.802V56.032H171.066V73.728ZM173.594 73.728H172.33V56.032H173.594V73.728ZM176.122 73.728H174.858V56.032H176.122V73.728ZM178.65 73.728H177.386V56.032H178.65V73.728ZM182.442 73.728H181.178V56.032H182.442V73.728ZM184.97 73.728H183.706V56.032H184.97V73.728ZM187.498 73.728H186.234V56.032H187.498V73.728ZM190.026 73.728H188.762V56.032H190.026V73.728ZM193.818 73.728H192.554V56.032H193.818V73.728ZM196.346 73.728H195.082V56.032H196.346V73.728ZM198.874 73.728H197.61V56.032H198.874V73.728ZM201.402 73.728H200.138V57.296H201.402V73.728ZM205.194 73.728H203.93V58.56H205.194V73.728ZM207.722 73.728H206.458V58.56H207.722V73.728ZM210.25 73.728H208.986V59.824H210.25V73.728ZM212.778 73.728H211.514V61.088H212.778V73.728ZM216.57 73.728H215.306V63.616H216.57V73.728ZM219.098 73.728H217.834V64.88H219.098V73.728ZM224.786 71.832H219.73V70.568H224.786V71.832ZM222.258 68.04H219.73V66.776H222.258V68.04ZM173.594 54.768H172.33V52.24H173.594V54.768ZM178.65 54.768H177.386V50.976H178.65V54.768ZM184.97 54.768H183.706V52.24H184.97V54.768Z" fill="white"/>
</svg>
