<svg width="251" height="169" viewBox="0 0 251 169" fill="none" xmlns="http://www.w3.org/2000/svg">
<rect width="251" height="169" fill="#FF4939"/>
<path d="M53.66 159.738L51.606 160.528L48.762 161.634L46.234 162.424C45.8127 162.635 45.4967 162.529 45.286 162.108C45.286 161.897 45.286 161.739 45.286 161.634L43.864 162.424C43.4427 162.635 43.1267 162.529 42.916 162.108C42.6 161.687 42.6527 161.371 43.074 161.16L45.128 160.054L42.442 161.16L39.756 161.792C39.44 161.897 39.1767 161.792 38.966 161.476L37.702 162.108C37.2807 162.319 36.9647 162.213 36.754 161.792C36.754 161.792 36.754 161.739 36.754 161.634L34.542 162.424C34.1207 162.635 33.8047 162.529 33.594 162.108C33.594 161.897 33.594 161.739 33.594 161.634L31.382 162.266C30.9607 162.477 30.6973 162.371 30.592 161.95C30.3813 161.423 30.5393 161.107 31.066 161.002C30.9607 161.002 30.8553 161.002 30.75 161.002L29.486 161.318C29.3807 161.423 29.328 161.476 29.328 161.476L28.38 161.95L25.852 163.056C25.4307 163.267 25.1147 163.161 24.904 162.74C24.6933 162.319 24.7987 162.003 25.22 161.792L26.8 161.002C26.5893 161.002 26.3787 161.002 26.168 161.002L25.22 161.476L22.534 162.582C22.1127 162.793 21.7967 162.687 21.586 162.266C21.586 162.055 21.586 161.845 21.586 161.634L20.322 162.266C19.9007 162.477 19.5847 162.371 19.374 161.95C19.2687 161.739 19.2687 161.529 19.374 161.318L16.846 162.266C16.4247 162.477 16.1087 162.371 15.898 161.95C15.7927 161.634 15.7927 161.371 15.898 161.16L13.528 161.792C13.1067 162.003 12.7907 161.845 12.58 161.318C12.4747 160.897 12.738 160.581 13.37 160.37C13.4753 160.37 13.528 160.37 13.528 160.37L16.372 159.422L19.058 158.632C18.742 158.316 18.584 158.105 18.584 158C18.4787 158 18.3733 157.947 18.268 157.842L15.898 159.106L13.054 160.212L10.684 161.318C10.2627 161.529 9.94667 161.423 9.736 161.002C9.52533 160.581 9.63067 160.265 10.052 160.054L12.58 158.948C12.58 158.948 12.58 158.895 12.58 158.79L15.266 157.842L17.794 156.578C17.794 156.578 17.8467 156.578 17.952 156.578C17.636 155.946 17.4253 155.419 17.32 154.998L14.95 155.63L12.264 156.42L9.578 157.526C9.15667 157.737 8.84067 157.631 8.63 157.21C8.41933 156.789 8.57733 156.473 9.104 156.262L11.79 154.998C11.8953 154.998 11.948 154.998 11.948 154.998L14.476 154.366L17.162 153.576C17.162 153.26 17.162 152.891 17.162 152.47L14.792 153.418C14.792 153.418 14.792 153.471 14.792 153.576L11.948 154.208L9.578 155.156C9.15667 155.261 8.84067 155.103 8.63 154.682C8.52467 154.261 8.68267 153.945 9.104 153.734L11.474 152.944C11.474 152.944 11.5267 152.944 11.632 152.944L14.318 152.154L17.32 150.732C17.32 150.416 17.32 150.1 17.32 149.784C17.32 149.468 17.2673 149.152 17.162 148.836L14.792 149.784L12.422 150.89C12.3167 150.89 12.264 150.89 12.264 150.89L9.578 151.68C9.15667 151.891 8.84067 151.733 8.63 151.206C8.52467 150.785 8.68267 150.521 9.104 150.416L11.79 149.468L14.318 148.52L16.53 147.572C16.6353 147.572 16.688 147.572 16.688 147.572L17.478 147.256C17.478 146.729 17.478 146.361 17.478 146.15L14.95 147.256L12.422 148.362C12.3167 148.362 12.264 148.362 12.264 148.362L10.052 149.152C9.63067 149.257 9.31467 149.099 9.104 148.678C8.99867 148.257 9.15667 147.941 9.578 147.73L11.79 147.098L14.476 145.992L16.846 144.886L17.636 144.412C17.636 143.675 17.636 143.148 17.636 142.832L14.95 144.096L12.422 145.202C12.3167 145.307 12.264 145.36 12.264 145.36L9.894 145.992C9.47267 146.097 9.15667 145.939 8.946 145.518C8.84067 145.097 8.99867 144.833 9.42 144.728L11.79 143.938L17.636 141.252C17.636 140.515 17.5307 140.041 17.32 139.83C17.32 139.83 17.2673 139.83 17.162 139.83L14.792 140.462L12.422 141.726L9.578 142.832C9.15667 143.043 8.84067 142.937 8.63 142.516C8.41933 142.095 8.57733 141.779 9.104 141.568L11.79 140.462L14.16 139.198C14.16 139.198 14.2127 139.198 14.318 139.198L16.846 138.408L17.636 138.092C17.636 137.355 17.4253 136.828 17.004 136.512L14.476 137.302L11.948 138.408C11.8427 138.408 11.79 138.408 11.79 138.408L9.104 139.198C8.57733 139.303 8.26133 139.145 8.156 138.724C8.05067 138.197 8.20867 137.881 8.63 137.776L11.316 137.144L13.844 135.88C13.844 135.88 13.8967 135.88 14.002 135.88L16.688 135.09L17.478 134.932C17.478 134.827 17.478 134.774 17.478 134.774C17.478 134.353 17.478 133.984 17.478 133.668L14.634 134.774L11.948 135.88L9.104 136.828C8.68267 137.039 8.36667 136.933 8.156 136.512C8.05067 136.091 8.20867 135.775 8.63 135.564L11.316 134.458L14.16 133.51L17.478 132.088C17.3727 131.877 17.32 131.667 17.32 131.456C17.32 131.245 17.32 131.035 17.32 130.824C17.32 130.508 17.2147 130.297 17.004 130.192L14.318 131.14L11.632 131.772L8.946 132.878C8.52467 132.983 8.20867 132.825 7.998 132.404C7.89267 131.983 8.05067 131.667 8.472 131.456L11.158 130.508C11.158 130.508 11.2107 130.508 11.316 130.508L13.844 129.718L16.688 128.77C16.688 128.77 16.846 128.717 17.162 128.612C17.162 128.296 17.162 127.98 17.162 127.664L15.108 128.296L12.58 129.402L10.21 130.192C9.78867 130.403 9.47267 130.297 9.262 129.876C9.15667 129.349 9.31467 129.033 9.736 128.928L11.948 127.98L14.634 127.032C14.634 127.032 14.634 126.979 14.634 126.874L17.162 126.084C17.162 125.452 17.1093 124.82 17.004 124.188L14.792 124.978L12.422 125.926C12.422 125.926 12.3693 125.926 12.264 125.926L9.578 126.716C9.05133 126.821 8.73533 126.663 8.63 126.242C8.52467 125.715 8.68267 125.399 9.104 125.294L11.948 124.504L14.318 123.714L17.004 122.608C17.004 122.397 17.004 122.187 17.004 121.976C17.004 121.871 17.004 121.713 17.004 121.502C17.004 121.291 17.004 121.081 17.004 120.87L14.476 121.818L12.106 122.924L9.736 124.188C9.31467 124.399 8.99867 124.293 8.788 123.872C8.57733 123.451 8.68267 123.135 9.104 122.924L11.474 121.66L13.844 120.554C13.844 120.554 13.8967 120.501 14.002 120.396L16.688 119.606C16.688 119.606 16.846 119.553 17.162 119.448C17.162 118.921 17.162 118.395 17.162 117.868L14.95 118.658L12.738 119.764C12.6327 119.764 12.58 119.764 12.58 119.764L10.368 120.554C9.94667 120.659 9.63067 120.501 9.42 120.08C9.31467 119.553 9.47267 119.237 9.894 119.132L12.106 118.342L14.318 117.394C14.318 117.394 14.3707 117.394 14.476 117.394L16.688 116.446C16.688 116.446 16.7407 116.446 16.846 116.446C16.846 116.446 16.9513 116.393 17.162 116.288C17.2673 115.761 17.32 115.34 17.32 115.024L14.634 115.814L12.422 116.446L10.052 117.71C9.63067 117.921 9.31467 117.815 9.104 117.394C8.89333 116.973 8.99867 116.657 9.42 116.446L11.79 115.182C11.8953 115.182 11.948 115.182 11.948 115.182L14.16 114.392L17.32 113.444C17.32 112.601 17.2147 111.969 17.004 111.548L14.318 112.812L11.474 113.602L8.788 114.55C8.36667 114.761 8.05067 114.655 7.84 114.234C7.73467 113.813 7.89267 113.497 8.314 113.286L11 112.18C11 112.18 11.0527 112.18 11.158 112.18L13.844 111.548L16.53 110.284C16.53 110.284 16.5827 110.284 16.688 110.284C16.688 110.284 16.8987 110.231 17.32 110.126C17.32 109.705 17.32 109.283 17.32 108.862L14.95 109.652L12.738 110.758L10.21 112.022C9.78867 112.233 9.47267 112.127 9.262 111.706C9.05133 111.285 9.15667 110.969 9.578 110.758L12.106 109.494L14.318 108.388C14.4233 108.388 14.476 108.388 14.476 108.388C14.3707 108.388 14.3707 108.388 14.476 108.388L17.32 107.44C17.32 106.703 17.2673 106.176 17.162 105.86C17.0567 105.86 17.004 105.86 17.004 105.86L14.476 106.65L11.948 107.756L9.42 109.02C8.99867 109.231 8.68267 109.125 8.472 108.704C8.26133 108.283 8.36667 107.967 8.788 107.756L11.316 106.492L13.844 105.386C13.844 105.386 13.8967 105.333 14.002 105.228L17.162 104.28C17.162 103.543 17.1093 102.911 17.004 102.384L14.634 103.174L12.264 104.28C12.264 104.28 12.2113 104.28 12.106 104.28L9.42 105.07C8.89333 105.175 8.57733 104.965 8.472 104.438C8.36667 104.017 8.52467 103.753 8.946 103.648L11.79 102.858L14.16 101.91L17.004 100.962C17.004 100.435 17.004 99.9613 17.004 99.54L14.95 100.488L12.58 101.278L9.736 102.542C9.31467 102.753 8.99867 102.647 8.788 102.226C8.57733 101.805 8.73533 101.489 9.262 101.278L11.948 100.014L14.476 99.066L16.846 98.118C16.846 98.118 16.8987 98.118 17.004 98.118C17.004 97.5913 17.004 97.0647 17.004 96.538L15.266 97.486L13.054 98.592L10.684 99.382C10.2627 99.5927 9.94667 99.4873 9.736 99.066C9.63067 98.6447 9.78867 98.3287 10.21 98.118L12.422 97.17L14.634 96.222L17.004 94.958C17.004 94.958 17.0567 94.958 17.162 94.958C17.162 94.4313 17.162 93.852 17.162 93.22L15.266 94.01C15.266 94.1153 15.266 94.168 15.266 94.168L12.58 94.8L10.21 95.59C9.78867 95.6953 9.47267 95.5373 9.262 95.116C9.15667 94.6947 9.31467 94.3787 9.736 94.168L12.264 93.536L14.792 92.746L17.004 91.798C17.1093 91.6927 17.2147 91.64 17.32 91.64C17.32 91.4293 17.32 91.2187 17.32 91.008C17.4253 90.692 17.478 90.4287 17.478 90.218L14.792 91.166L11.948 92.114L9.262 93.062C8.84067 93.2727 8.52467 93.1673 8.314 92.746C8.20867 92.2193 8.36667 91.9033 8.788 91.798L11.632 90.692L14.318 89.902L17.636 88.638C17.636 87.9007 17.636 87.374 17.636 87.058L15.108 87.848L12.738 89.112L9.894 90.376C9.47267 90.4813 9.15667 90.3233 8.946 89.902C8.73533 89.4807 8.89333 89.1647 9.42 88.954L12.106 87.848L14.476 86.584C14.476 86.584 14.5287 86.584 14.634 86.584L17.794 85.478C17.794 84.7407 17.5833 84.2667 17.162 84.056L14.318 85.162L11.948 86.11L9.262 87.374C8.84067 87.5847 8.52467 87.4793 8.314 87.058C8.10333 86.6367 8.20867 86.3207 8.63 86.11L11.316 84.846L13.844 83.74L16.53 82.792L17.952 82.318C17.952 81.5807 17.7413 81.1593 17.32 81.054L14.792 81.844L12.264 82.95L9.578 84.056C9.15667 84.2667 8.84067 84.1613 8.63 83.74C8.41933 83.3187 8.52467 83.0027 8.946 82.792L11.632 81.686L14.318 80.58L16.846 79.632L17.952 79.316C17.8467 78.4733 17.636 77.9467 17.32 77.736L14.476 79L11.79 79.632L9.42 80.738C8.99867 80.9487 8.68267 80.8433 8.472 80.422C8.26133 79.8953 8.41933 79.5793 8.946 79.474L11.316 78.368C11.4213 78.368 11.474 78.368 11.474 78.368L14.002 77.578L16.688 76.472C16.7933 76.472 16.846 76.472 16.846 76.472L17.794 75.998C17.794 75.366 17.6887 74.9447 17.478 74.734L14.634 75.84L12.106 77.104C12.0007 77.104 11.948 77.104 11.948 77.104L9.736 77.736C9.31467 77.9467 8.99867 77.8413 8.788 77.42C8.68267 76.8933 8.84067 76.5773 9.262 76.472L11.474 75.682L14.002 74.576C14.002 74.576 14.0547 74.576 14.16 74.576L16.846 73.47L17.636 73.154C17.636 72.3113 17.478 71.732 17.162 71.416L14.792 72.522L12.264 73.786L9.894 74.892C9.47267 75.1027 9.15667 74.9973 8.946 74.576C8.73533 74.0493 8.84067 73.7333 9.262 73.628L11.632 72.522L14.16 71.258L16.53 70.152C16.6353 70.0467 16.688 69.994 16.688 69.994L17.636 69.836C17.636 69.0987 17.4253 68.572 17.004 68.256L14.318 69.046L11.79 69.836L9.42 70.468C8.99867 70.6787 8.68267 70.5207 8.472 69.994C8.36667 69.5727 8.52467 69.3093 8.946 69.204L11.474 68.414L13.844 67.624L16.688 66.992L17.478 66.676C17.478 66.044 17.3727 65.57 17.162 65.254L14.634 66.202L11.948 67.15L9.42 67.94C8.89333 68.0453 8.57733 67.8873 8.472 67.466C8.36667 66.9393 8.52467 66.6233 8.946 66.518L11.632 65.886L14.16 64.938L16.688 63.832C16.688 63.832 16.7407 63.832 16.846 63.832C16.846 63.832 17.0567 63.7793 17.478 63.674C17.478 63.042 17.478 62.5153 17.478 62.094L14.95 63.042L12.58 63.674L10.21 64.78C9.78867 64.9907 9.47267 64.8853 9.262 64.464C9.05133 64.0427 9.15667 63.7267 9.578 63.516L11.948 62.41C12.0533 62.41 12.106 62.41 12.106 62.41L14.476 61.62L17.478 60.672C17.3727 59.9347 17.32 59.408 17.32 59.092L14.95 60.04L12.738 60.83L10.21 61.936C9.78867 62.1467 9.47267 62.0413 9.262 61.62C9.05133 61.1987 9.15667 60.8827 9.578 60.672L12.106 59.566C12.2113 59.4607 12.264 59.408 12.264 59.408L14.476 58.776L16.688 57.67C16.7933 57.67 17.004 57.6173 17.32 57.512C17.32 57.196 17.32 56.8273 17.32 56.406L14.634 57.512L12.264 58.46L9.42 59.724C8.99867 59.9347 8.68267 59.8293 8.472 59.408C8.26133 58.8813 8.41933 58.5653 8.946 58.46L11.632 57.196L14.16 56.09L17.32 54.984C17.32 54.8787 17.32 54.826 17.32 54.826C17.2147 54.6153 17.162 54.352 17.162 54.036C17.162 53.6147 17.162 53.2987 17.162 53.088L14.792 54.194L12.422 54.984L9.894 56.09C9.47267 56.3007 9.15667 56.1953 8.946 55.774C8.73533 55.3527 8.84067 55.0367 9.262 54.826L11.79 53.72C11.79 53.72 11.79 53.6673 11.79 53.562C11.8953 53.562 11.948 53.562 11.948 53.562L14.318 52.93L17.162 51.666C17.162 51.2447 17.2147 50.8233 17.32 50.402L16.056 50.876L13.37 51.666L10.842 52.456C10.4207 52.6667 10.1047 52.5087 9.894 51.982C9.78867 51.5607 9.94667 51.2973 10.368 51.192L12.738 50.402C12.738 50.086 12.896 49.8753 13.212 49.77L15.898 48.822L18.11 48.19C18.3207 47.7687 18.6367 47.4 19.058 47.084C20.006 46.0307 21.0593 45.4513 22.218 45.346C23.3767 45.2407 24.588 45.2407 25.852 45.346C26.2733 45.346 26.5367 45.346 26.642 45.346C27.1687 45.346 27.6427 45.3987 28.064 45.504C28.5907 45.504 29.1173 45.504 29.644 45.504C33.2253 45.6093 36.8593 45.6093 40.546 45.504C44.338 45.3987 48.0773 45.188 51.764 44.872C53.976 44.6613 56.188 44.6087 58.4 44.714C60.7173 44.714 62.982 44.7667 65.194 44.872C65.9313 44.872 66.6687 44.9247 67.406 45.03C68.2487 45.03 69.0387 45.03 69.776 45.03H69.934C70.6713 45.03 71.4613 45.03 72.304 45.03C73.1467 45.03 74.042 45.03 74.99 45.03C76.886 45.03 78.8347 45.03 80.836 45.03C82.8373 45.03 84.786 45.188 86.682 45.504C89.526 46.0307 92.37 46.768 95.214 47.716C98.1633 48.5587 100.902 49.6647 103.43 51.034C104.905 51.8767 106.327 52.8247 107.696 53.878C109.171 54.826 110.487 55.932 111.646 57.196C113.437 58.9867 115.017 61.7253 116.386 65.412C117.861 68.9933 118.967 72.7327 119.704 76.63C120.547 80.422 120.863 83.582 120.652 86.11C120.547 88.638 120.178 91.5347 119.546 94.8C119.019 98.0653 118.124 101.278 116.86 104.438C115.701 107.493 114.227 109.915 112.436 111.706C110.435 114.234 107.959 116.551 105.01 118.658C102.166 120.765 99.2693 122.503 96.32 123.872C96.32 123.872 96.2673 123.872 96.162 123.872C93.5287 124.82 90.79 125.452 87.946 125.768C85.2073 126.084 82.5213 126.242 79.888 126.242L78.15 126.716C77.7287 126.927 77.4653 126.821 77.36 126.4C77.2547 126.295 77.202 126.189 77.202 126.084L74.832 126.874C74.4107 126.979 74.0947 126.821 73.884 126.4L71.672 127.19C71.2507 127.401 70.9347 127.295 70.724 126.874C70.724 126.769 70.724 126.663 70.724 126.558L68.354 127.19C68.1433 127.295 67.9327 127.295 67.722 127.19L65.352 128.296C64.9307 128.507 64.6147 128.401 64.404 127.98C64.1933 127.559 64.2987 127.243 64.72 127.032L67.406 125.768L68.67 125.452C68.4593 125.347 68.196 125.294 67.88 125.294C67.6693 125.294 67.3007 125.347 66.774 125.452L64.404 126.4L63.614 126.716C63.5087 127.032 63.456 127.401 63.456 127.822C63.456 128.243 63.4033 128.612 63.298 128.928C62.982 131.983 62.7713 134.985 62.666 137.934C62.666 140.883 62.508 143.833 62.192 146.782C62.192 147.203 62.192 147.572 62.192 147.888C62.192 148.204 62.192 148.573 62.192 148.994C62.192 149.731 62.1393 150.469 62.034 151.206C62.034 151.838 61.9287 152.523 61.718 153.26C61.5073 154.103 61.244 154.893 60.928 155.63C60.612 156.367 60.1907 156.999 59.664 157.526C58.8213 158.369 57.8733 158.948 56.82 159.264C55.7667 159.58 54.7133 159.738 53.66 159.738ZM26.484 157.21C26.8 156.999 27.0633 156.999 27.274 157.21C27.59 157.21 27.906 157.21 28.222 157.21C28.6433 157.21 29.1173 157.157 29.644 157.052C29.8547 157.052 30.0653 157.105 30.276 157.21C31.0133 157.21 31.8033 157.157 32.646 157.052C32.7513 157.052 32.804 157.052 32.804 157.052C33.9627 156.947 35.1213 156.894 36.28 156.894C37.4387 156.789 38.5973 156.683 39.756 156.578C41.336 156.367 42.8633 156.209 44.338 156.104C45.8127 155.999 47.34 155.893 48.92 155.788C49.236 155.788 49.552 155.841 49.868 155.946C50.184 155.946 50.5527 155.946 50.974 155.946C52.0273 156.051 53.0807 156.104 54.134 156.104C55.2927 155.999 56.2407 155.577 56.978 154.84C57.294 154.524 57.5047 154.155 57.61 153.734C57.8207 153.207 57.9787 152.733 58.084 152.312C58.1893 151.68 58.242 151.048 58.242 150.416C58.3473 149.784 58.4 149.152 58.4 148.52C58.4 148.204 58.4 147.888 58.4 147.572C58.4 147.151 58.4 146.782 58.4 146.466C58.716 143.517 58.9267 140.567 59.032 137.618C59.1373 134.563 59.348 131.561 59.664 128.612C59.664 128.296 59.664 127.98 59.664 127.664C59.664 127.348 59.7167 127.032 59.822 126.716C59.7167 126.611 59.6113 126.505 59.506 126.4C59.506 126.189 59.5587 125.979 59.664 125.768C59.664 125.768 59.664 125.715 59.664 125.61C59.5587 125.399 59.5587 125.189 59.664 124.978C59.4533 124.978 59.2953 124.82 59.19 124.504C59.0847 124.083 59.2427 123.819 59.664 123.714C59.664 122.871 59.9273 122.187 60.454 121.66C60.454 121.66 60.612 121.607 60.928 121.502C61.1387 121.397 61.2967 121.344 61.402 121.344C62.35 121.344 63.298 121.344 64.246 121.344C65.2993 121.344 66.3 121.397 67.248 121.502C67.9853 121.502 68.7227 121.555 69.46 121.66C70.3027 121.765 71.0927 121.818 71.83 121.818C73.1993 122.029 74.516 122.187 75.78 122.292C77.1493 122.397 78.5187 122.45 79.888 122.45C80.0987 122.45 80.3093 122.45 80.52 122.45L81.31 122.134C81.626 122.029 81.8893 122.081 82.1 122.292C82.5213 122.292 82.9953 122.292 83.522 122.292L84.312 121.818C84.7333 121.607 85.0493 121.713 85.26 122.134C85.26 122.134 85.3127 122.134 85.418 122.134L87.63 121.186C87.946 121.081 88.2093 121.133 88.42 121.344L90.948 120.554C91.0533 120.449 91.2113 120.396 91.422 120.396C91.6327 120.396 92.054 120.343 92.686 120.238L93.95 119.764C94.0553 119.659 94.1607 119.606 94.266 119.606L97.11 118.658C97.426 118.447 97.6367 118.5 97.742 118.816C99.954 117.552 102.113 116.13 104.22 114.55C106.327 112.865 108.117 111.074 109.592 109.178C109.592 109.178 109.645 109.178 109.75 109.178C111.33 107.598 112.594 105.386 113.542 102.542C114.595 99.698 115.385 96.7487 115.912 93.694C116.439 90.6393 116.755 88.0587 116.86 85.952C116.965 83.74 116.649 80.896 115.912 77.42C115.28 73.8387 114.332 70.4153 113.068 67.15C111.804 63.7793 110.382 61.304 108.802 59.724C107.749 58.6707 106.59 57.7227 105.326 56.88C104.167 55.932 102.903 55.0893 101.534 54.352C99.2167 53.088 96.6887 52.0347 93.95 51.192C91.3167 50.3493 88.736 49.7173 86.208 49.296C84.312 48.98 82.416 48.822 80.52 48.822C78.624 48.822 76.728 48.822 74.832 48.822C73.9893 48.822 73.1467 48.822 72.304 48.822C71.4613 48.822 70.6187 48.822 69.776 48.822C69.0387 48.822 68.2487 48.822 67.406 48.822C66.6687 48.7167 65.8787 48.664 65.036 48.664C62.9293 48.5587 60.77 48.506 58.558 48.506C56.346 48.4007 54.134 48.4533 51.922 48.664C48.3407 48.98 44.6013 49.1907 40.704 49.296C36.912 49.4013 33.1727 49.4013 29.486 49.296C29.0647 49.296 28.5907 49.296 28.064 49.296C27.5373 49.1907 27.0107 49.138 26.484 49.138C26.3787 49.138 26.0627 49.138 25.536 49.138C24.904 49.0327 24.2193 48.98 23.482 48.98C22.7447 48.98 22.1653 49.2433 21.744 49.77C21.2173 50.1913 20.9013 50.7707 20.796 51.508C20.796 52.2453 20.8487 52.9827 20.954 53.72C20.954 54.1413 21.0067 54.4573 21.112 54.668C21.112 55.7213 21.112 56.722 21.112 57.67C21.2173 60.83 21.27 63.99 21.27 67.15C21.3753 70.2047 21.4807 73.2593 21.586 76.314C21.6913 77.9993 21.744 79.6847 21.744 81.37C21.744 82.95 21.6913 84.53 21.586 86.11C21.4807 88.2167 21.3227 90.3233 21.112 92.43C20.9013 94.4313 20.796 96.4327 20.796 98.434C20.796 99.4873 20.796 100.541 20.796 101.594C20.9013 102.647 20.954 103.701 20.954 104.754C21.0593 105.597 21.112 106.492 21.112 107.44C21.112 108.388 21.112 109.283 21.112 110.126C21.112 111.285 21.112 112.391 21.112 113.444C21.112 114.497 21.0593 115.551 20.954 116.604C20.954 117.552 20.9013 118.5 20.796 119.448C20.796 120.291 20.796 121.186 20.796 122.134C20.796 123.503 20.796 124.925 20.796 126.4C20.9013 127.875 21.0067 129.297 21.112 130.666C21.112 131.403 21.112 132.088 21.112 132.72C21.2173 133.352 21.27 133.984 21.27 134.616C21.4807 138.197 21.5333 141.568 21.428 144.728C21.428 145.887 21.3753 146.993 21.27 148.046C21.1647 149.099 21.112 150.153 21.112 151.206C21.112 151.417 21.0593 151.733 20.954 152.154C20.954 152.997 20.954 153.629 20.954 154.05C21.0593 154.366 21.1647 154.735 21.27 155.156C21.4807 155.472 21.6913 155.788 21.902 156.104L24.588 157.21C25.3253 157.21 25.9573 157.21 26.484 157.21ZM61.876 95.116L60.77 95.59C60.3487 95.6953 59.98 95.59 59.664 95.274C59.2427 94.958 59.032 94.642 59.032 94.326C59.1373 92.3247 59.2427 90.3233 59.348 88.322C59.4533 86.3207 59.506 84.372 59.506 82.476C59.506 82.0547 59.506 81.5807 59.506 81.054C59.0847 81.1593 58.8213 81.0013 58.716 80.58C58.6107 80.1587 58.874 79.8427 59.506 79.632C59.506 79.5267 59.506 79.474 59.506 79.474C59.506 79.3687 59.506 79.316 59.506 79.316C58.9793 79.4213 58.716 79.2633 58.716 78.842C58.6107 78.3153 58.7687 77.9993 59.19 77.894C59.0847 77.4727 59.032 77.104 59.032 76.788C59.1373 76.3667 59.348 75.9453 59.664 75.524C59.7693 75.524 59.9273 75.4713 60.138 75.366C60.3487 75.2607 60.5067 75.208 60.612 75.208C61.4547 75.1027 62.2973 75.05 63.14 75.05C64.088 75.05 64.9833 75.05 65.826 75.05C66.142 75.05 66.5633 75.05 67.09 75.05C69.0913 74.9447 70.9873 75.05 72.778 75.366C74.674 75.5767 76.2013 76.5773 77.36 78.368C78.94 80.58 79.572 83.3187 79.256 86.584C78.94 89.744 77.5707 92.114 75.148 93.694C74.516 94.1153 73.7787 94.4313 72.936 94.642C72.0933 94.8527 71.3033 95.0107 70.566 95.116C70.1447 95.2213 69.776 95.274 69.46 95.274C69.144 95.1687 68.7753 95.116 68.354 95.116C67.9327 95.116 67.6167 95.116 67.406 95.116C66.458 95.116 65.51 95.116 64.562 95.116C63.614 95.116 62.7187 95.116 61.876 95.116ZM65.668 79L63.298 79.948C63.298 79.948 63.298 80.0533 63.298 80.264C63.298 80.1587 63.3507 80.106 63.456 80.106L66.142 79L67.09 78.684C66.9847 78.684 66.8267 78.7367 66.616 78.842C66.4053 78.842 66.0893 78.8947 65.668 79ZM63.298 81.37C63.298 81.686 63.298 82.0547 63.298 82.476C63.298 83.9507 63.2453 85.4253 63.14 86.9C63.14 88.3747 63.0873 89.8493 62.982 91.324C64.562 91.324 66.0367 91.324 67.406 91.324C67.6167 91.324 67.88 91.324 68.196 91.324C68.9333 91.4293 69.5127 91.4293 69.934 91.324C70.1447 91.324 70.3553 91.324 70.566 91.324C70.7767 91.2187 71.04 91.166 71.356 91.166L72.304 90.692C72.304 90.5867 72.304 90.534 72.304 90.534L73.568 90.218C74.4107 89.4807 74.99 88.48 75.306 87.216L73.252 88.164L70.566 89.112L68.196 89.744C67.7747 89.9547 67.4587 89.7967 67.248 89.27C67.1427 88.8487 67.3007 88.5853 67.722 88.48L70.25 87.69L72.778 86.9L75.148 85.636C75.2533 85.636 75.3587 85.5833 75.464 85.478C75.5693 84.846 75.5167 84.3193 75.306 83.898L72.62 85.004C72.5147 85.004 72.462 85.004 72.462 85.004L69.776 85.952L67.564 86.9C67.1427 87.1107 66.8267 87.0053 66.616 86.584C66.4053 86.1627 66.5107 85.8467 66.932 85.636L69.302 84.688C69.302 84.688 69.302 84.6353 69.302 84.53L71.988 83.74L74.832 82.476C74.832 82.476 74.9373 82.4233 75.148 82.318C74.9373 81.686 74.6213 81.212 74.2 80.896L71.672 81.686L69.302 82.476L66.458 83.424C66.0367 83.5293 65.7733 83.3713 65.668 82.95C65.4573 82.5287 65.5627 82.2127 65.984 82.002L68.828 81.212L71.198 80.264C71.3033 80.264 71.356 80.264 71.356 80.264L73.41 79.632C72.8833 79.2107 72.2513 78.9473 71.514 78.842L69.302 79.474L66.616 80.422L63.93 81.528C63.7193 81.528 63.5087 81.4753 63.298 81.37ZM135.674 63.516C135.99 63.3053 136.254 63.3053 136.464 63.516C136.57 63.3053 136.728 63.042 136.938 62.726L135.516 63.358L132.83 64.306L130.144 65.254L127.616 66.044C127.195 66.1493 126.879 65.9913 126.668 65.57C126.563 65.0433 126.721 64.7273 127.142 64.622L129.354 63.99C129.249 63.99 129.196 63.9373 129.196 63.832C128.986 63.4107 129.091 63.0947 129.512 62.884L131.882 61.62L134.568 60.672L137.254 59.724L134.726 60.514L132.04 61.62C131.619 61.7253 131.303 61.5673 131.092 61.146C130.882 60.7247 131.04 60.4087 131.566 60.198L134.094 59.25C133.989 59.25 133.936 59.1973 133.936 59.092C133.726 58.6707 133.831 58.3547 134.252 58.144L136.78 57.196C136.886 57.0907 136.991 56.9853 137.096 56.88L139.782 55.932C139.677 55.8267 139.572 55.7213 139.466 55.616C139.361 55.1947 139.519 54.9313 139.94 54.826L142.468 53.878L143.732 53.404C143.838 53.2987 143.89 53.246 143.89 53.246C146.524 50.718 149.684 48.7693 153.37 47.4C157.057 45.9253 160.638 44.714 164.114 43.766C164.114 43.766 164.114 43.7133 164.114 43.608C164.22 43.608 164.272 43.608 164.272 43.608C166.906 43.0813 169.592 42.7653 172.33 42.66C175.069 42.5547 177.808 42.5547 180.546 42.66C183.39 42.7653 186.34 42.9233 189.394 43.134C192.554 43.2393 195.556 43.7133 198.4 44.556C201.034 45.3987 203.667 46.3993 206.3 47.558C208.934 48.6113 211.514 49.8227 214.042 51.192C216.149 52.3507 218.203 53.562 220.204 54.826C222.206 56.09 223.996 57.6173 225.576 59.408C227.683 61.4093 229.474 63.7267 230.948 66.36C232.423 68.888 233.634 71.5213 234.582 74.26C235.846 77.736 236.584 81.1593 236.794 84.53C236.794 84.7407 236.847 85.1093 236.952 85.636C237.058 86.268 237.11 86.8473 237.11 87.374C237.11 87.9007 236.952 88.48 236.636 89.112C235.372 91.5347 234.003 92.9567 232.528 93.378C231.159 93.694 229.316 93.852 226.998 93.852C226.893 93.852 226.788 93.7993 226.682 93.694C225.734 93.694 224.628 93.694 223.364 93.694L220.836 94.8C220.415 95.0107 220.099 94.9053 219.888 94.484C219.783 94.168 219.888 93.9047 220.204 93.694C219.783 93.5887 219.151 93.536 218.308 93.536L216.886 94.326C216.465 94.5367 216.149 94.4313 215.938 94.01C215.833 93.9047 215.78 93.7467 215.78 93.536C215.57 93.536 215.359 93.536 215.148 93.536L213.726 94.168C213.305 94.3787 212.989 94.2733 212.778 93.852C212.673 93.7467 212.62 93.6413 212.62 93.536C212.515 93.536 212.357 93.536 212.146 93.536L210.566 93.852C210.04 94.0627 209.724 93.9047 209.618 93.378C209.408 93.378 209.197 93.378 208.986 93.378L207.248 93.852C206.827 94.0627 206.511 93.9573 206.3 93.536L203.93 94.326C203.509 94.5367 203.193 94.4313 202.982 94.01C202.982 93.7993 202.982 93.6413 202.982 93.536L200.612 94.168C200.191 94.3787 199.875 94.2207 199.664 93.694C199.559 93.2727 199.506 93.1147 199.506 93.22L196.978 93.852C196.768 93.9573 196.557 93.9047 196.346 93.694L194.292 94.642C193.766 94.8527 193.45 94.6947 193.344 94.168C193.134 93.7467 193.239 93.4833 193.66 93.378L195.872 92.43C195.662 92.3247 195.398 92.272 195.082 92.272L193.028 93.062L190.658 93.852C190.132 93.9573 189.816 93.7467 189.71 93.22C189.71 93.22 189.71 93.1673 189.71 93.062L187.656 93.694C187.235 93.9047 186.919 93.7993 186.708 93.378C186.603 92.8513 186.761 92.5353 187.182 92.43L189.71 91.482L191.448 90.85C191.238 90.6393 191.08 90.4813 190.974 90.376L189.71 90.692L187.024 91.956L184.18 93.062C183.759 93.2727 183.443 93.1673 183.232 92.746C183.022 92.3247 183.18 92.0087 183.706 91.798L186.392 90.534L189.236 89.428L190.342 88.954C190.237 88.7433 190.132 88.48 190.026 88.164C189.921 87.848 189.816 87.532 189.71 87.216L188.446 87.848L186.234 89.112C186.234 89.112 186.182 89.112 186.076 89.112L183.548 90.06C183.127 90.2707 182.811 90.1653 182.6 89.744C182.39 89.3227 182.495 89.0067 182.916 88.796L185.602 87.69L187.814 86.584L189.236 85.794C189.131 85.478 188.973 85.1093 188.762 84.688C188.552 84.2667 188.394 83.8453 188.288 83.424L186.708 83.898L184.18 85.004L181.81 85.952C181.389 86.0573 181.073 85.8993 180.862 85.478C180.757 85.0567 180.915 84.7407 181.336 84.53L183.706 83.582L186.076 82.634C186.076 82.634 186.129 82.634 186.234 82.634L187.498 82.16C187.182 81.528 186.814 80.9487 186.392 80.422L184.022 81.054L181.494 82.002L178.966 82.95C178.545 83.1607 178.229 83.0553 178.018 82.634C177.913 82.2127 178.071 81.8967 178.492 81.686L180.862 80.58C180.968 80.58 181.02 80.58 181.02 80.58L183.548 79.79L184.97 79.316C184.865 79.2107 184.707 79.1053 184.496 79C184.18 78.8947 183.601 78.9473 182.758 79.158C182.232 79.158 181.916 79.158 181.81 79.158C181.494 79.158 181.284 79.158 181.178 79.158L179.124 80.106L176.596 81.054C176.175 81.2647 175.859 81.1593 175.648 80.738C175.438 80.3167 175.596 80.0007 176.122 79.79L177.07 79.316C176.438 79.4213 175.859 79.5267 175.332 79.632L173.278 80.58C172.857 80.7907 172.541 80.738 172.33 80.422C172.12 80.422 171.909 80.4747 171.698 80.58C171.488 80.58 171.33 80.58 171.224 80.58C171.224 81.528 171.224 82.476 171.224 83.424C171.224 84.2667 171.224 85.1093 171.224 85.952C171.224 88.0587 171.224 90.1653 171.224 92.272C171.33 94.3787 171.382 96.4853 171.382 98.592C171.382 100.699 171.382 102.858 171.382 105.07C171.488 107.177 171.593 109.283 171.698 111.39C171.698 111.706 171.698 112.233 171.698 112.97C171.804 114.761 171.962 116.604 172.172 118.5C172.383 120.291 173.068 121.923 174.226 123.398C175.28 124.767 176.754 125.663 178.65 126.084C180.652 126.4 182.548 126.347 184.338 125.926L185.76 125.294L187.972 124.188C188.499 123.767 188.92 123.345 189.236 122.924C189.658 122.397 189.974 121.923 190.184 121.502L187.972 122.134L185.286 122.924L182.916 123.872C182.495 124.083 182.179 123.977 181.968 123.556C181.758 123.135 181.863 122.819 182.284 122.608L184.654 121.502C184.76 121.502 184.812 121.502 184.812 121.502L187.498 120.87L189.868 120.08L191.132 119.764C191.238 119.448 191.343 119.185 191.448 118.974C191.554 118.763 191.712 118.5 191.922 118.184L189.868 118.816L187.34 119.764L184.496 120.712C184.075 120.817 183.812 120.659 183.706 120.238C183.496 119.711 183.654 119.395 184.18 119.29L186.866 118.342L189.552 117.552L191.764 116.762L192.712 116.446C193.134 115.603 193.66 114.971 194.292 114.55C195.346 113.707 196.557 113.233 197.926 113.128C199.296 113.023 200.612 112.97 201.876 112.97C202.403 112.97 202.772 112.97 202.982 112.97C209.829 112.865 216.623 112.97 223.364 113.286C224.312 113.286 225.26 113.339 226.208 113.444C227.156 113.444 228.104 113.444 229.052 113.444C229.263 113.444 229.632 113.391 230.158 113.286C230.685 113.286 231.159 113.286 231.58 113.286C232.107 113.286 232.634 113.444 233.16 113.76C235.478 115.129 236.847 116.551 237.268 118.026C237.795 119.395 237.953 121.291 237.742 123.714C237.426 126.979 236.636 130.455 235.372 134.142C234.108 137.723 232.423 140.831 230.316 143.464C227.999 145.992 225.366 148.257 222.416 150.258C219.467 152.259 216.518 154.103 213.568 155.788C211.988 157.157 209.724 158.263 206.774 159.106C203.825 159.949 200.612 160.581 197.136 161.002C193.66 161.529 190.342 161.897 187.182 162.108C186.866 162.213 186.656 162.213 186.55 162.108C186.024 162.108 185.497 162.108 184.97 162.108L184.022 162.266C184.022 162.371 183.97 162.424 183.864 162.424C183.864 162.424 183.759 162.424 183.548 162.424L180.704 163.372C180.283 163.477 179.967 163.319 179.756 162.898C179.756 162.793 179.756 162.687 179.756 162.582L177.544 163.53C177.123 163.741 176.807 163.635 176.596 163.214C176.491 163.003 176.491 162.793 176.596 162.582L174.542 163.53C174.121 163.741 173.805 163.635 173.594 163.214L171.54 163.846C171.33 163.951 171.172 163.951 171.066 163.846C170.54 164.057 170.224 163.899 170.118 163.372C170.013 162.951 170.171 162.687 170.592 162.582L174.068 161.476C174.068 161.476 173.963 161.476 173.752 161.476L172.646 161.792L170.276 162.424L167.432 163.214C167.011 163.319 166.748 163.161 166.642 162.74L164.43 163.53C164.009 163.635 163.746 163.477 163.64 163.056C163.535 162.845 163.43 162.687 163.324 162.582L160.796 163.53C160.375 163.741 160.112 163.583 160.006 163.056C159.901 162.951 159.901 162.793 160.006 162.582L157.636 163.372C157.215 163.477 156.952 163.319 156.846 162.898C156.636 162.371 156.794 162.055 157.32 161.95L160.006 161.16L162.218 160.054L163.008 159.58C162.587 159.58 162.166 159.527 161.744 159.422L159.69 160.054L157.162 161.002L154.792 162.108C154.371 162.319 154.055 162.213 153.844 161.792C153.634 161.371 153.739 161.002 154.16 160.686L151.632 161.95C151.211 162.161 150.895 162.055 150.684 161.634C150.474 161.213 150.579 160.897 151 160.686L153.528 159.422C153.634 159.422 153.686 159.422 153.686 159.422L156.214 158.632L157.162 158.316C156.952 158.211 156.636 158.211 156.214 158.316L154.002 159.106C154.002 159.106 154.002 159.159 154.002 159.264C153.897 159.264 153.844 159.264 153.844 159.264L151.316 159.896L148.946 161.002C148.525 161.107 148.209 160.949 147.998 160.528C147.788 160.107 147.893 159.791 148.314 159.58L150.842 158.632L153.528 157.842L154.476 157.526C153.95 157.315 153.476 157.105 153.054 156.894L151 157.526L148.314 158.474L145.47 159.422C145.049 159.527 144.786 159.369 144.68 158.948C144.47 158.421 144.628 158.105 145.154 158L151 156.104C150.684 155.999 150.368 155.946 150.052 155.946L147.524 156.894L144.68 157.842L141.994 158.632C141.468 158.843 141.152 158.685 141.046 158.158C140.941 157.737 141.099 157.473 141.52 157.368L144.206 156.42L147.05 155.472L148.63 154.998C148.525 154.893 148.367 154.84 148.156 154.84C147.946 154.735 147.577 154.735 147.05 154.84L144.522 155.63C144.417 155.63 144.364 155.63 144.364 155.63L139.15 157.21C138.729 157.315 138.466 157.157 138.36 156.736C138.255 156.209 138.413 155.893 138.834 155.788L141.52 154.998L144.048 154.366L146.418 153.418C146.102 153.207 145.839 152.997 145.628 152.786C145.418 152.681 145.312 152.575 145.312 152.47L144.522 152.786L141.994 153.892L139.308 155.156L136.464 156.42C136.043 156.631 135.727 156.473 135.516 155.946C135.411 155.525 135.569 155.209 135.99 154.998L138.676 153.892L141.52 152.628L143.732 151.522C143.627 151.417 143.469 151.364 143.258 151.364C143.048 151.259 142.679 151.259 142.152 151.364L139.466 152.312L137.254 153.26L134.884 154.05C134.463 154.155 134.2 153.997 134.094 153.576C133.884 153.049 134.042 152.733 134.568 152.628L136.78 151.996L138.992 151.048L141.52 149.942C141.099 149.626 140.678 149.31 140.256 148.994L139.15 149.31L136.464 150.1L133.62 151.364L131.408 152.154C130.882 152.365 130.566 152.259 130.46 151.838C130.25 151.311 130.355 150.995 130.776 150.89L133.146 149.942L135.832 148.836C135.832 148.836 135.885 148.783 135.99 148.678L138.992 147.888C138.782 147.677 138.518 147.519 138.202 147.414C137.886 147.203 137.465 147.045 136.938 146.94L134.41 148.046L131.724 149.152C131.724 149.152 131.672 149.152 131.566 149.152L129.354 149.784C128.933 149.995 128.617 149.889 128.406 149.468C128.301 148.941 128.459 148.625 128.88 148.52L131.092 147.73L133.936 146.782L136.306 145.518C136.412 145.518 136.464 145.518 136.464 145.518C136.359 145.307 136.148 145.149 135.832 145.044C135.622 144.833 135.306 144.675 134.884 144.57L132.198 145.202L129.986 145.992L127.774 147.098C127.353 147.309 127.037 147.203 126.826 146.782C126.616 146.361 126.721 146.045 127.142 145.834L129.354 144.728C129.354 144.728 129.407 144.728 129.512 144.728C129.512 144.623 129.512 144.57 129.512 144.57L131.882 143.938L134.41 143.148C134.094 142.727 133.726 142.411 133.304 142.2L130.618 143.464L127.774 144.728L125.246 145.834C124.825 146.045 124.509 145.939 124.298 145.518C124.088 145.097 124.193 144.781 124.614 144.57L127.3 143.306L129.986 142.2L132.83 140.936C132.725 140.725 132.567 140.515 132.356 140.304C132.146 139.988 131.777 139.777 131.25 139.672L128.722 140.778L126.194 142.042L123.35 143.148C122.929 143.359 122.613 143.253 122.402 142.832C122.192 142.411 122.35 142.095 122.876 141.884L125.562 140.62L128.248 139.514L131.25 138.092C131.145 137.881 130.987 137.671 130.776 137.46C130.671 137.144 130.408 136.933 129.986 136.828L127.142 138.092L124.614 138.882L121.928 139.672C121.507 139.883 121.191 139.777 120.98 139.356C120.875 138.829 121.033 138.513 121.454 138.408L124.298 137.46L126.668 136.828L130.144 135.248C129.934 134.932 129.723 134.616 129.512 134.3C129.407 133.984 129.196 133.721 128.88 133.51L126.668 134.458C126.668 134.458 126.616 134.458 126.51 134.458C126.51 134.563 126.51 134.616 126.51 134.616L123.982 135.406L121.77 136.67C121.349 136.881 121.033 136.775 120.822 136.354C120.612 135.933 120.664 135.617 120.98 135.406L123.35 134.142C123.456 134.142 123.508 134.142 123.508 134.142L126.036 133.194L128.248 132.246C128.248 132.246 128.301 132.193 128.406 132.088C128.406 132.088 128.564 132.035 128.88 131.93C128.67 131.298 128.406 130.877 128.09 130.666L125.246 131.772L123.034 132.878L120.506 133.984C120.085 134.089 119.769 133.931 119.558 133.51C119.453 133.089 119.611 132.773 120.032 132.562L122.402 131.614L124.772 130.508L128.09 129.086C127.88 128.349 127.616 127.875 127.3 127.664L124.772 128.454L122.244 129.402L119.558 130.508C119.137 130.719 118.874 130.613 118.768 130.192C118.558 129.665 118.663 129.349 119.084 129.244L121.77 128.138L124.298 127.032C124.404 127.032 124.456 127.032 124.456 127.032L127.458 126.084C127.248 125.347 126.984 124.873 126.668 124.662C126.668 124.662 126.616 124.662 126.51 124.662C126.51 124.767 126.51 124.82 126.51 124.82L123.824 125.452L121.138 126.4L118.926 127.506C118.505 127.717 118.189 127.611 117.978 127.19C117.768 126.769 117.873 126.453 118.294 126.242L120.506 125.136C120.506 125.136 120.559 125.083 120.664 124.978L123.35 124.188C123.35 124.083 123.35 124.03 123.35 124.03L126.826 123.082C126.721 122.661 126.616 122.292 126.51 121.976C126.405 121.66 126.247 121.397 126.036 121.186L123.508 122.292C123.508 122.292 123.456 122.292 123.35 122.292L120.822 123.24L118.136 124.03C117.715 124.241 117.452 124.135 117.346 123.714C117.136 123.187 117.241 122.871 117.662 122.766L120.348 121.818L122.876 121.028L125.404 119.764C125.404 119.764 125.457 119.764 125.562 119.764C125.562 119.764 125.773 119.711 126.194 119.606C126.194 119.395 126.194 119.185 126.194 118.974C126.194 118.658 126.142 118.395 126.036 118.184L123.508 119.132L120.664 120.08L117.978 120.712C117.452 120.923 117.136 120.765 117.03 120.238C116.925 119.817 117.083 119.553 117.504 119.448L120.348 118.658L123.034 117.868L126.036 116.604C126.036 115.972 126.036 115.287 126.036 114.55L123.35 115.34L120.822 116.13L118.294 117.236C117.873 117.447 117.61 117.341 117.504 116.92C117.294 116.393 117.399 116.077 117.82 115.972L120.19 114.866C120.19 114.866 120.243 114.866 120.348 114.866L122.876 113.918C122.982 113.918 123.034 113.918 123.034 113.918L126.036 112.97C126.036 112.654 125.984 112.338 125.878 112.022C125.878 111.601 125.72 111.232 125.404 110.916L123.034 111.864L120.822 112.97L118.452 114.234C118.031 114.445 117.715 114.339 117.504 113.918C117.294 113.497 117.399 113.181 117.82 112.97L120.19 111.706L122.402 110.6C122.508 110.495 122.508 110.442 122.402 110.442C122.508 110.442 122.56 110.442 122.56 110.442L124.93 109.652L126.194 109.178C126.194 108.651 126.247 108.019 126.352 107.282L125.404 107.598L122.876 108.388L120.506 109.178L118.136 110.284C117.715 110.495 117.399 110.337 117.188 109.81C116.978 109.389 117.083 109.125 117.504 109.02L120.032 107.914L122.244 106.966C122.244 106.966 122.297 106.966 122.402 106.966L124.93 106.176L126.51 105.702V105.544C126.51 105.228 126.51 104.912 126.51 104.596C126.616 104.28 126.668 103.964 126.668 103.648L125.562 103.964L123.35 104.754L120.506 105.86L117.82 107.124C117.399 107.229 117.083 107.071 116.872 106.65C116.662 106.229 116.767 105.913 117.188 105.702L120.032 104.596L122.718 103.49L125.088 102.542L126.826 102.068C126.826 101.436 126.826 100.804 126.826 100.172L125.72 100.804L123.034 101.752L120.664 102.542L118.294 103.49C117.768 103.595 117.452 103.437 117.346 103.016C117.136 102.595 117.294 102.279 117.82 102.068L120.19 101.12L122.56 100.488L125.246 99.382L126.984 98.592C126.984 97.96 126.984 97.2753 126.984 96.538L125.562 97.012L123.192 97.96L120.822 98.75L118.452 99.856C118.031 100.172 117.715 100.119 117.504 99.698C117.294 99.2767 117.399 98.908 117.82 98.592L120.19 97.486C120.296 97.3807 120.348 97.328 120.348 97.328L122.718 96.696L125.088 95.59L126.984 94.958C126.984 94.958 126.984 94.9053 126.984 94.8C126.984 94.0627 126.984 93.536 126.984 93.22L125.878 93.694C125.878 93.7993 125.878 93.852 125.878 93.852L123.35 94.8L120.664 96.064L118.452 97.012C117.926 97.2227 117.61 97.1173 117.504 96.696C117.294 96.2747 117.399 95.9587 117.82 95.748L120.032 94.8L122.718 93.536L125.246 92.43L127.142 91.64C127.142 90.9027 127.142 90.218 127.142 89.586L126.036 89.902C126.036 89.902 125.984 89.9547 125.878 90.06L123.192 90.692L120.822 91.482L118.294 92.43C117.873 92.6407 117.557 92.5353 117.346 92.114C117.136 91.6927 117.294 91.3767 117.82 91.166L120.19 90.06C120.296 90.06 120.348 90.06 120.348 90.06L122.718 89.27L125.562 88.638L127.3 88.006C127.3 87.1633 127.353 86.3733 127.458 85.636L126.194 85.952L123.666 87.216L121.296 88.006L118.926 88.954C118.505 89.1647 118.189 89.0593 117.978 88.638C117.768 88.2167 117.873 87.9007 118.294 87.69L120.822 86.584L123.192 85.794L125.72 84.688C125.826 84.688 125.878 84.688 125.878 84.688L127.616 84.056C127.722 83.5293 127.827 83.0027 127.932 82.476L126.51 82.95L123.982 83.74L121.296 84.53L119.084 85.32C118.663 85.5307 118.347 85.4253 118.136 85.004C117.926 84.5827 118.031 84.2667 118.452 84.056L120.822 83.108C120.928 83.108 120.98 83.108 120.98 83.108L123.666 82.318L126.036 81.686L128.406 80.896C128.617 80.3693 128.828 79.8427 129.038 79.316L126.984 80.106L124.772 81.212L121.928 82.318L119.242 83.424C118.821 83.5293 118.505 83.3713 118.294 82.95C118.084 82.5287 118.242 82.2127 118.768 82.002L121.454 81.054L124.14 79.948L126.352 78.842C126.352 78.842 126.405 78.842 126.51 78.842C126.51 78.7367 126.51 78.684 126.51 78.684L129.354 77.736C129.46 77.6307 129.565 77.6307 129.67 77.736C129.881 77.104 130.092 76.5773 130.302 76.156L128.09 76.946L125.404 77.894L123.034 78.842L120.664 79.948C120.243 80.1587 119.927 80.0533 119.716 79.632C119.506 79.2107 119.611 78.8947 120.032 78.684L122.402 77.578C122.402 77.4727 122.402 77.42 122.402 77.42L124.93 76.63L127.458 75.524C127.564 75.524 127.616 75.524 127.616 75.524L130.144 74.576C130.46 74.4707 130.724 74.5233 130.934 74.734C131.145 74.2073 131.408 73.628 131.724 72.996L128.88 74.102L126.352 75.208L123.508 76.156L121.138 77.42C120.717 77.6307 120.401 77.5253 120.19 77.104C119.98 76.5773 120.085 76.2087 120.506 75.998L123.034 74.892L125.878 73.944L128.406 72.68L131.25 71.732C131.672 71.5213 131.935 71.6267 132.04 72.048C132.356 71.416 132.672 70.784 132.988 70.152L130.46 71.1L127.616 72.364L124.93 73.47L122.086 74.418C121.665 74.6287 121.349 74.5233 121.138 74.102C121.033 73.6807 121.191 73.3647 121.612 73.154L124.298 72.048L127.142 71.1L129.828 69.836L132.514 68.73C132.936 68.6247 133.252 68.7827 133.462 69.204C133.778 68.6773 134.094 68.098 134.41 67.466L131.724 68.572L129.038 69.678L126.194 70.784L123.666 71.574C123.245 71.6793 122.982 71.5213 122.876 71.1C122.771 70.6787 122.929 70.3627 123.35 70.152L126.036 69.362C125.931 69.2567 125.878 69.1513 125.878 69.046C125.668 68.6247 125.773 68.3087 126.194 68.098L128.88 66.834L131.092 65.728L133.462 64.622L135.674 63.516ZM196.978 157.21C197.189 157.105 197.347 157.105 197.452 157.21L200.138 156.42C200.349 156.42 200.612 156.473 200.928 156.578L203.14 155.63C203.456 155.525 203.72 155.577 203.93 155.788L206.142 154.682C206.564 154.471 206.88 154.577 207.09 154.998C208.881 154.366 210.25 153.629 211.198 152.786C211.198 152.786 211.251 152.733 211.356 152.628C214.2 150.943 217.044 149.205 219.888 147.414C222.732 145.518 225.26 143.359 227.472 140.936C229.368 138.724 230.843 135.985 231.896 132.72C232.95 129.349 233.634 126.242 233.95 123.398C234.056 123.187 234.108 122.924 234.108 122.608C234.214 121.239 234.161 120.185 233.95 119.448C233.74 118.711 232.844 117.921 231.264 117.078C231.054 116.973 230.527 116.973 229.684 117.078C229.263 117.183 229 117.236 228.894 117.236C227.946 117.236 226.998 117.236 226.05 117.236C225.102 117.131 224.154 117.078 223.206 117.078C216.465 116.762 209.724 116.657 202.982 116.762C202.772 116.762 202.403 116.762 201.876 116.762C200.928 116.762 199.928 116.815 198.874 116.92C197.926 116.92 197.189 117.131 196.662 117.552C196.136 117.868 195.767 118.395 195.556 119.132C195.346 119.764 195.082 120.291 194.766 120.712C194.029 122.081 193.344 123.345 192.712 124.504C192.186 125.557 191.238 126.611 189.868 127.664C188.078 128.823 185.971 129.56 183.548 129.876C181.231 130.192 178.914 130.034 176.596 129.402C174.384 128.77 172.594 127.559 171.224 125.768C169.644 123.767 168.696 121.502 168.38 118.974C168.17 116.446 168.012 113.971 167.906 111.548C167.801 109.441 167.696 107.335 167.59 105.228C167.59 103.016 167.59 100.857 167.59 98.75C167.59 96.6433 167.538 94.5367 167.432 92.43C167.432 90.3233 167.432 88.2167 167.432 86.11C167.432 84.9513 167.432 83.8453 167.432 82.792C167.432 81.6333 167.432 80.5273 167.432 79.474C167.432 79.474 167.432 79.3687 167.432 79.158C167.538 78.9473 167.59 78.842 167.59 78.842C168.012 78.21 168.538 77.7887 169.17 77.578C169.908 77.3673 170.592 77.104 171.224 76.788C172.91 76.156 174.648 75.7873 176.438 75.682C178.229 75.4713 180.02 75.366 181.81 75.366C182.021 75.366 182.39 75.366 182.916 75.366C183.443 75.2607 183.917 75.208 184.338 75.208C184.76 75.208 185.234 75.3133 185.76 75.524C185.866 75.524 186.024 75.5767 186.234 75.682C186.55 75.682 186.761 75.7873 186.866 75.998C187.709 76.5247 188.446 77.1567 189.078 77.894C189.394 77.894 189.658 78.052 189.868 78.368C189.868 78.4733 189.868 78.6313 189.868 78.842C190.29 79.474 190.711 80.1587 191.132 80.896C191.448 80.896 191.712 81.054 191.922 81.37C191.922 81.686 191.87 81.9493 191.764 82.16C192.08 82.6867 192.396 83.3713 192.712 84.214C193.028 84.214 193.239 84.372 193.344 84.688C193.555 85.004 193.502 85.2673 193.186 85.478C193.292 85.8993 193.344 86.3207 193.344 86.742C193.45 87.1633 193.608 87.4793 193.818 87.69C194.24 87.5847 194.556 87.7427 194.766 88.164C194.766 88.2693 194.766 88.3747 194.766 88.48C195.082 88.48 195.398 88.5327 195.714 88.638C196.03 88.638 196.294 88.638 196.504 88.638C196.504 88.638 196.662 88.5853 196.978 88.48C197.4 88.3747 197.663 88.48 197.768 88.796C198.084 88.9013 198.4 88.954 198.716 88.954C199.032 88.954 199.559 88.8487 200.296 88.638C200.612 88.5327 200.876 88.6907 201.086 89.112C201.402 89.112 201.718 89.112 202.034 89.112C202.35 89.0067 202.824 88.9013 203.456 88.796C203.878 88.5853 204.194 88.6907 204.404 89.112C204.404 89.2173 204.404 89.27 204.404 89.27C204.72 89.27 204.984 89.27 205.194 89.27L206.774 88.796C207.301 88.6907 207.617 88.8487 207.722 89.27C207.722 89.3753 207.722 89.4807 207.722 89.586C208.038 89.586 208.354 89.586 208.67 89.586L209.934 88.954C210.356 88.638 210.724 88.6907 211.04 89.112C211.04 89.3227 211.04 89.4807 211.04 89.586C211.251 89.6913 211.409 89.744 211.514 89.744L213.41 88.796C213.832 88.6907 214.148 88.8487 214.358 89.27C214.358 89.3753 214.358 89.5333 214.358 89.744L216.728 88.796C217.15 88.6907 217.466 88.8487 217.676 89.27C217.676 89.4807 217.676 89.6387 217.676 89.744C217.782 89.744 217.94 89.744 218.15 89.744L219.888 88.954C220.31 88.7433 220.626 88.8487 220.836 89.27C220.942 89.4807 220.942 89.6913 220.836 89.902C220.836 89.902 220.889 89.902 220.994 89.902L223.206 88.796C223.628 88.6907 223.944 88.8487 224.154 89.27C224.26 89.4807 224.26 89.6913 224.154 89.902C224.26 89.902 224.312 89.902 224.312 89.902L226.524 88.954C226.946 88.7433 227.262 88.8487 227.472 89.27C227.578 89.586 227.525 89.8493 227.314 90.06C227.525 90.06 227.841 90.06 228.262 90.06L230.474 88.954C230.896 88.7433 231.212 88.8487 231.422 89.27C231.528 89.3753 231.58 89.4807 231.58 89.586C232.212 89.1647 232.792 88.4273 233.318 87.374C233.424 87.058 233.371 86.4787 233.16 85.636C233.055 85.2147 233.002 84.9513 233.002 84.846C232.792 81.7913 232.16 78.684 231.106 75.524C230.158 73.1013 229 70.7313 227.63 68.414C226.366 65.9913 224.786 63.832 222.89 61.936C221.416 60.4613 219.73 59.1447 217.834 57.986C215.938 56.722 214.042 55.5633 212.146 54.51C209.829 53.246 207.406 52.0873 204.878 51.034C202.35 49.9807 199.822 49.0327 197.294 48.19C194.661 47.3473 191.87 46.8733 188.92 46.768C185.971 46.6627 183.127 46.5573 180.388 46.452C177.86 46.3467 175.28 46.3467 172.646 46.452C170.118 46.5573 167.59 46.8733 165.062 47.4C163.798 47.716 162.429 48.0847 160.954 48.506C159.585 48.9273 158.216 49.4013 156.846 49.928C156.741 50.0333 156.636 50.086 156.53 50.086L154.318 51.35C154.318 51.35 154.266 51.35 154.16 51.35L151.948 52.14C149.736 53.2987 147.946 54.5627 146.576 55.932C144.47 57.9333 142.468 60.514 140.572 63.674C138.782 66.834 137.096 70.152 135.516 73.628C134.042 76.9987 132.778 80.0533 131.724 82.792C131.303 84.7933 131.04 86.8473 130.934 88.954C130.829 91.0607 130.776 93.1673 130.776 95.274C130.776 96.4327 130.724 97.644 130.618 98.908C130.618 100.067 130.566 101.225 130.46 102.384C130.46 103.016 130.408 103.648 130.302 104.28C130.302 104.807 130.302 105.333 130.302 105.86C130.092 107.967 129.934 110.126 129.828 112.338C129.723 114.445 129.776 116.551 129.986 118.658C130.197 120.87 130.618 123.451 131.25 126.4C131.988 129.349 132.883 132.193 133.936 134.932C135.095 137.671 136.464 139.83 138.044 141.41C138.044 141.41 138.044 141.463 138.044 141.568C138.15 141.568 138.202 141.568 138.202 141.568C139.466 143.253 140.888 144.781 142.468 146.15C144.154 147.414 145.944 148.573 147.84 149.626C147.84 149.626 147.84 149.679 147.84 149.784C147.946 149.784 147.998 149.784 147.998 149.784C149.789 151.575 152.475 153.049 156.056 154.208C159.743 155.261 163.482 156.104 167.274 156.736C171.172 157.263 174.384 157.684 176.912 158L179.914 158.158C181.389 158.263 183.39 158.263 185.918 158.158C188.446 158.158 191.08 158 193.818 157.684C193.924 157.684 193.976 157.684 193.976 157.684C194.608 157.579 195.24 157.526 195.872 157.526L196.978 157.21ZM133.936 66.044C134.358 65.8333 134.674 65.9387 134.884 66.36C135.095 65.9387 135.306 65.5173 135.516 65.096L133.936 65.886L131.25 67.308L133.936 66.044ZM165.536 160.054C165.431 160.054 165.326 160.107 165.22 160.212L163.166 161.16L165.536 160.054ZM168.538 160.686C168.328 160.581 168.117 160.528 167.906 160.528L166.642 161.16L168.538 160.686Z" fill="black"/>
</svg>
