<svg width="251" height="169" viewBox="0 0 251 169" fill="none" xmlns="http://www.w3.org/2000/svg">
<g clip-path="url(#clip0_58_14)">
<rect width="251" height="169" fill="#FF4939"/>
<path d="M29.984 149.823L28.214 146.283H14.054L10.337 140.619L9.275 141.504V132.831L6.974 133.008L5.735 129.468V103.449L9.452 108.051L12.461 108.582V108.405V108.582H13.169L12.992 109.467L13.169 109.644V109.113L15.47 101.148L15.116 99.909L13.169 106.812L12.992 106.281L9.452 105.75L5.735 101.148V84.156L5.204 82.917V68.934L7.682 76.545L10.514 79.554L11.93 76.899L13.523 77.076L16.178 74.067L14.054 71.766L11.576 64.332V60.792L14.585 60.261L13.7 57.252L12.461 60.615L6.797 58.137L8.744 64.863L5.735 65.394V55.482L5.558 55.128H5.735V30.879L9.452 34.596L12.638 32.295L19.718 34.596L21.842 40.083L22.019 40.26L23.789 39.375L21.842 37.782L19.895 32.826H19.718L19.187 31.941L12.638 29.64L9.452 31.941L5.735 28.224L7.151 24.861L13.877 23.445H20.603L16.178 25.392L16.532 26.1L20.603 24.33H23.966L28.214 24.684L31.223 25.038L32.108 26.454H34.409L34.055 25.746H39.719L40.427 25.215H50.516L52.109 25.569L51.932 26.1H56.888L56.18 26.985L51.401 33.18L54.41 33.711L51.932 36.543L49.808 41.499H49.985L51.932 41.676L53.171 38.667L55.649 35.835L58.481 35.481L62.552 32.649L54.41 33.534L60.074 26.277L60.782 25.392H64.145L68.57 25.569L75.827 26.1L79.544 26.631L80.429 28.401L79.721 29.286V29.463L80.783 29.817L80.429 27.87L86.624 27.693L83.261 30.348L85.208 30.702L82.553 30.879L81.314 31.764L81.137 30.879H80.075V31.056L79.367 30.879H79.013L78.836 30.702L78.305 30.525L77.597 31.233L72.464 34.065L72.641 34.242L76.712 31.941L73.703 36.012L73.88 36.189L72.995 39.729L75.296 45.393L74.765 46.455L75.827 47.163L76.712 44.508L73.88 37.605L77.597 32.649L81.314 33.711L80.075 37.782L79.013 41.322L82.022 45.747L82.73 39.729L81.491 37.782L82.73 33.711L84.5 32.472V31.941L85.031 32.118L88.217 29.64L88.04 33.003L94.766 35.835L97.952 37.782L103.616 42.384L108.395 47.871L108.572 48.048L112.466 43.446L116.36 53.712L114.59 50.172L109.28 49.464L110.342 51.057L105.209 56.898L106.094 57.075V56.544L109.988 57.606H110.519L114.59 57.429L113.351 59.907L114.059 61.5L114.413 63.624L114.59 63.978H114.413L114.767 65.925H117.245L117.422 69.465L117.245 73.89L116.183 80.97L115.121 84.51L113.882 87.873L112.112 91.236L110.165 94.245L107.864 97.077L105.209 99.555L102.731 97.608L98.66 97.785L99.368 103.803L96.182 105.396L92.819 106.812L89.456 108.051L87.863 107.874L85.031 103.98H84.854L87.332 107.343L83.615 107.166L81.137 107.697H80.96L87.332 107.874L88.925 108.051L82.022 109.821L80.606 107.697L80.429 107.874L76.712 108.228L73.172 108.582L71.579 107.52L70.34 107.874L66.8 108.228L71.402 111.237L64.145 111.414H57.95L55.118 113.007V114.954L54.941 113.892L55.118 113.007L51.755 114.954L51.578 116.37H51.755L54.587 116.724L52.994 120.441L54.41 122.034V128.76L51.755 130.53V142.743L50.339 146.106L46.976 147.522H33.701V146.283H33.17L33.347 149.823H29.984ZM34.94 30.702L36.533 32.649L32.993 27.162H32.639L34.94 30.702ZM38.657 29.817L40.958 32.826L43.259 29.463L45.737 32.118L45.914 32.649V32.472L45.56 31.41L43.082 28.755H42.551L40.427 31.764L37.772 28.578H37.595L38.657 29.817ZM47.684 38.136L46.091 33.357L47.861 38.667V38.49L49.1 33.888H48.746L47.684 38.136ZM32.462 39.375L32.816 39.906H35.117L32.816 36.366H32.462L32.108 35.835H25.736L29.276 39.375H32.462ZM58.835 38.49L62.375 40.437L62.552 38.844L60.074 37.605L58.835 38.49ZM36.533 48.048L34.94 51.411L32.639 56.544H32.993L34.94 52.473H35.471L36.533 50.172L39.896 52.827H41.489L36.533 49.11L41.312 43.977V46.632L42.728 46.809L43.79 44.508L43.613 43.092L41.312 42.915L36.533 48.048ZM17.771 54.066L19.895 49.641L20.426 49.995L20.78 49.11L21.488 46.986L19.895 48.933L20.249 43.977L18.125 44.508L16.709 44.685L15.293 45.393L13.877 44.862L11.93 45.039L12.284 44.331L9.275 43.269L6.089 49.818L12.284 49.287L16.532 48.225L14.939 53.889L14.762 54.42L17.594 55.482L17.771 54.066ZM25.913 45.216V44.685L25.736 45.039L25.913 45.216ZM59.72 46.986L59.189 45.924L57.065 49.818V51.234L57.596 51.057L59.72 46.986ZM84.323 46.101V46.278H84.5L84.323 46.101ZM82.199 46.632L82.022 46.278V46.455L82.199 46.632ZM90.518 46.986L88.748 49.641L89.102 51.057L92.111 46.986H90.518ZM69.986 49.818L71.048 54.42L71.579 54.597L72.641 52.827L72.11 50.526L74.765 49.464L75.65 48.048L75.827 47.517L69.986 49.818ZM45.914 50.172L43.436 49.11L42.905 49.287L42.374 49.995L45.914 51.588L47.507 48.402L46.799 48.579L45.914 50.172ZM77.066 50.172L77.774 53.889L79.013 52.473L77.066 50.172ZM86.27 51.411L86.093 50.703H85.739L86.093 51.234L86.27 51.411ZM89.456 51.765H89.279L89.81 52.119L92.111 51.765L89.279 51.234L89.456 51.765ZM94.943 52.119H94.766L94.943 52.473V52.119ZM54.056 75.129L57.773 78.315L58.127 78.669H60.251V78.492L67.685 77.076L71.579 75.483L68.57 79.731L72.641 86.634L68.57 85.572V85.749L72.818 86.811L75.296 91.059L79.19 93.006L85.385 90.174L85.739 89.289L82.73 90.705L78.836 88.758L79.544 82.917L77.42 79.2L81.845 79.908L82.907 78.492L82.553 77.784L82.199 78.315L76.181 77.43L74.057 71.589L73.88 65.217L71.579 62.031L69.809 60.438H72.641L72.287 59.73H69.278L64.676 58.314H58.481V53.358L57.95 53.004L57.065 54.243V56.013L55.649 55.836L55.118 56.544L54.587 55.836L52.286 55.659L53.525 54.243L52.286 52.296L50.516 52.65L52.286 55.128L50.87 58.845L49.277 55.305V57.606L50.516 60.438L50.87 59.553V66.102L50.693 72.297L52.109 78.846L54.056 75.129ZM66.977 52.827L60.782 54.42L61.136 54.597L67.331 53.004L66.977 52.827ZM74.057 55.128L77.066 54.774L77.42 54.243L74.234 54.597L74.057 55.128ZM98.306 54.597L97.952 54.774L97.421 56.544L100.076 57.606L101.492 56.013L98.306 54.597ZM72.641 55.305L73.172 55.128V54.774L71.933 54.951L72.641 55.305ZM6.797 55.482V57.783V57.96V58.137L6.974 55.482L5.735 55.128L6.797 55.482ZM83.615 55.836L83.792 56.367L85.739 55.836L85.562 55.305L83.615 55.836ZM91.757 66.456L89.987 68.757L88.925 66.81L88.217 66.987L87.155 69.819L89.987 68.934L97.421 69.111L92.819 74.421H91.934L89.633 75.837L91.049 81.147L92.465 83.271L90.872 77.253L94.589 77.43L99.191 72.12L102.2 74.067L107.687 74.421L113.528 72.12L112.289 68.934L116.183 70.173L114.944 68.049L115.121 68.757H112.289L105.917 71.235L100.43 70.881L97.421 68.934L89.987 68.757L91.757 66.456L97.067 58.137L99.545 63.27L102.377 63.978H104.501H104.324L103.793 62.916H103.616L99.368 61.854L97.067 57.783V58.137L95.828 56.544L92.465 58.137L87.686 61.323L87.155 61.677L88.04 63.27L92.111 60.438L97.067 58.137L91.757 66.456ZM20.78 59.73H21.134L21.311 59.553L21.488 59.73H22.904L21.488 58.314L20.78 59.73ZM74.588 59.73H73.172L73.703 60.438H74.942L75.119 59.022L74.588 59.73ZM25.913 62.739L24.851 61.5L24.497 62.562L25.205 63.447L25.913 62.739ZM86.27 62.739L86.624 63.447L86.978 61.854L86.093 62.562L86.27 62.739ZM107.864 62.739L106.979 62.916L107.156 63.801H107.333L107.864 62.739ZM45.56 65.394L46.091 67.518L46.622 67.872L45.56 63.624L43.967 65.925L44.852 66.456L45.56 65.394ZM27.683 68.757L28.391 70.527H28.745L29.276 66.102H34.763L38.126 66.279L38.834 65.04V63.978L33.878 63.801H28.391L27.683 68.757ZM38.303 68.757H43.259L44.144 67.518L43.613 66.456L42.905 67.518H39.188L38.303 68.757ZM46.976 72.828L46.445 71.943L44.852 70.704L46.622 73.89L46.976 72.828ZM87.686 74.421L84.5 78.315L85.031 79.377L87.155 76.722L88.394 73.182L86.801 70.881L86.093 73.005L86.27 73.182L83.084 77.076L87.686 74.421ZM18.479 72.474L18.302 73.182L19.718 76.368L23.966 75.129L24.497 72.828H24.143L19.01 74.244L19.895 72.297L19.364 71.412L18.479 72.474ZM73.172 75.66L75.296 81.501L77.42 85.218L76.712 91.059L74.234 86.811L70.163 79.908L73.172 75.66ZM35.825 87.342L33.878 89.466L33.347 91.236L36.002 90.882L36.179 87.165L40.25 88.581L42.551 86.988L37.064 85.041L39.188 82.032L36.887 79.023L36.179 80.085L29.63 79.731L26.975 77.253L25.913 78.315L24.497 76.014L26.975 82.032L28.922 83.979L29.63 83.094L32.462 89.997L32.816 89.643L29.63 81.501L36.179 81.855L35.825 87.342ZM14.585 87.165L15.47 88.227L16.532 88.758L19.718 83.271L20.072 84.156L20.957 84.333L21.842 83.625L22.727 84.156L22.904 83.979L22.727 84.333L23.081 84.51L24.32 84.687L21.842 82.74L19.541 77.607L19.01 79.908L19.718 81.147L14.585 84.51H9.275L9.098 84.687H14.585L10.337 88.05L7.328 89.643L6.974 91.236L7.682 94.776L8.567 94.422L10.337 89.643L10.691 90.174L14.585 87.165ZM49.454 82.386V82.032L45.383 83.979V87.696L49.985 85.218L55.118 90.705H56.003L59.543 87.873L61.667 92.475L58.658 97.431L60.959 97.962L64.322 92.475L69.986 92.121L70.34 97.254L78.482 97.608L70.517 97.254L70.163 92.121L68.924 89.289L64.322 89.466L63.437 87.696L63.083 87.873L61.136 85.218L58.658 87.165H55.118L49.985 81.678H49.808L49.454 82.386ZM15.116 96.9L16.532 91.059L16.178 90.705L14.939 96.192L15.116 96.9ZM93.704 98.493L95.474 101.679L98.483 97.785L99.191 97.077L99.014 95.13L98.483 95.661L95.297 99.555L93.527 96.369L94.766 94.599L92.288 93.36H90.872L89.633 96.192L93.704 98.493ZM19.718 97.254L25.028 98.139L27.152 97.962L27.329 95.307L33.347 96.723L32.285 94.776L29.63 94.953L23.435 95.484L18.302 94.599L19.718 97.254ZM39.719 97.962L43.082 97.785L42.728 96.015L39.542 96.546L39.719 97.962ZM78.482 101.856L79.367 103.803L79.544 103.98L78.659 101.856L84.5 98.316L82.199 97.962L78.659 100.086L78.482 101.856ZM32.285 111.414H30.692L32.108 115.131L34.409 116.193L31.754 109.821L36.533 109.644L42.551 110.175L40.25 114.954L44.144 115.308L45.56 108.759L43.967 106.635L49.1 103.449H43.967L43.436 99.378L40.604 101.148L39.011 108.228L35.117 107.874L37.418 103.095L31.4 102.564H30.515V103.272L33.701 106.989L30.161 107.697L29.984 108.582L29.276 107.874H28.214L27.683 105.927L26.267 104.157L23.081 103.98L23.258 105.042L24.851 105.927L23.789 106.812L24.143 107.874H28.037L27.329 110.175H28.391L29.984 108.936L32.285 111.414ZM19.541 106.635L19.895 108.051H21.311V107.697L19.541 106.635ZM19.01 120.795L19.895 122.742L21.134 120.795L16.355 119.733L15.647 113.538L15.47 113.184L14.585 113.538L15.116 117.963L12.638 123.981L6.62 125.043L9.452 126.99L13.523 126.282L15.824 129.468L16.886 129.645L16.532 130.176L17.063 130.884H17.24L19.01 133.362L20.426 131.415H23.435L19.541 126.282L18.302 126.459L17.24 128.229L16.709 126.813H16.532L15.116 122.919L17.948 123.627L19.01 120.795ZM11.399 117.432L10.16 114.069L9.452 113.892H9.098L6.443 116.547L7.682 116.901L9.629 114.954L10.514 117.255L11.399 117.432ZM28.568 114.069L28.922 114.954H29.453L29.099 114.423L28.568 114.069ZM43.79 122.034L43.259 123.804L44.852 128.052H46.268L43.79 121.326H46.622L45.56 118.14L43.613 118.317L42.728 118.848L43.79 122.034ZM49.985 126.636L49.1 129.291L49.454 130.707L50.87 129.822L52.64 124.866L52.286 121.68H51.755V124.158L49.808 121.857H49.454L49.985 126.636ZM30.161 125.22L30.869 126.282L32.108 126.99L33.524 123.45L31.931 123.273L31.754 122.919L31.4 123.981L26.798 124.866L27.152 125.751L30.161 125.22ZM43.082 130.353L46.445 128.583L46.268 128.229L43.082 129.999V130.353ZM37.064 129.999L35.294 128.937L36.356 130.884H37.064H37.595L37.064 129.999ZM27.152 130.53L26.975 129.822L23.435 131.415H25.205L27.152 130.53ZM42.905 133.008H42.551L44.144 135.309L44.852 134.601L43.79 132.831L46.268 133.185L47.33 132.123L47.153 130.884L43.082 130.353L42.905 133.008ZM48.392 131.415L48.569 131.238L48.392 131.061V131.415ZM10.514 134.778L14.762 134.424L13.346 132.477L9.806 132.831L10.514 134.778ZM33.524 138.318L34.763 143.451L32.993 143.805L33.524 144.513V143.805L36.356 143.097L35.117 137.964L27.86 138.318H26.267L25.913 140.973L26.444 141.504L29.453 141.858L26.267 138.672L33.524 138.318ZM5.735 142.92L6.797 142.035L10.514 147.699L7.151 146.283L5.735 142.92ZM169.828 51.942L164.341 45.393L159.562 45.216L165.049 51.765L166.996 49.464L165.226 54.774V55.305L171.421 56.013L173.014 55.836L173.368 55.305H173.014L174.961 49.464L173.014 51.942L174.607 47.694L174.076 45.393L175.315 45.924L175.492 45.393H173.191L170.536 40.614L174.253 41.499L177.439 44.508L177.97 42.915L176.377 41.499L172.66 40.614L173.545 34.773L171.421 33.888L166.819 33.711H166.111L165.049 40.614L167.527 45.216L172.306 45.393L169.828 51.942ZM191.068 30.171L194.608 29.109L192.307 28.578L191.068 30.171ZM205.759 32.118L207.883 33.534L208.591 33.711L205.405 31.41L203.104 30.171V30.702L205.759 32.118ZM214.963 35.658L212.662 39.021V39.198L214.963 36.189L216.91 30.525L216.379 30.348L214.786 35.481L214.963 35.658ZM223.813 39.906L224.344 41.322L225.937 40.791L224.698 37.782L223.813 39.906ZM185.404 39.198L185.05 40.791L187.882 40.083L185.404 39.198ZM197.086 39.375L194.254 40.083L199.387 41.676L199.21 40.083L197.086 39.375ZM190.36 44.685L192.484 40.614L190.891 40.968L189.829 40.614L187.705 44.685L193.192 45.216L196.024 49.995L190.006 49.818L187.528 51.942L182.218 50.349L182.395 51.234L181.864 52.119L186.997 53.712L189.475 51.588L195.493 51.765H198.856L199.21 49.995L204.697 55.836L208.06 56.898L210.715 54.066L211.6 57.96V57.783L210.715 53.889L205.051 52.119L202.219 49.11L201.511 49.995H197.44L194.608 45.216V45.039L190.36 44.685ZM198.856 45.57L201.511 41.145V40.968L198.856 45.57ZM156.376 55.128L156.022 56.898V57.075L156.376 57.252L158.146 56.19L158.677 53.712L157.084 50.703L156.022 43.977L155.668 44.331L156.73 50.703L153.367 50.172L153.898 51.942L156.376 55.128ZM134.251 45.747L132.835 49.641L131.065 52.119L134.251 45.747ZM151.243 51.942H151.951L153.013 50.172L151.951 49.995L149.119 51.057L148.942 51.411L151.243 51.942ZM213.724 51.057L218.149 57.429V56.898L214.078 51.057H213.724ZM223.282 56.721L223.459 56.898L220.981 51.234V51.411L223.282 56.721ZM132.658 60.084L129.826 67.341L128.941 60.615L131.065 53.889L132.658 60.084ZM177.97 57.606L178.501 55.836H178.147L175.138 56.013L176.2 60.084H178.678L177.97 57.606ZM155.491 61.146L154.606 62.562L158.5 61.146L158.677 60.084L155.491 61.146ZM133.189 67.341L129.826 67.695L132.658 60.438L133.189 67.341ZM178.855 60.615L178.147 61.323L178.855 60.792V60.615ZM151.42 65.394L149.65 62.208L149.827 61.323L147.172 62.385L147.349 62.562L149.119 65.394L155.137 66.81L155.668 66.456L151.42 65.394ZM218.503 64.686L220.096 66.456L220.627 66.279L218.503 63.978V64.686ZM158.5 68.58L154.96 69.288L152.836 71.058L155.137 71.943L157.969 71.412L158.5 68.58ZM157.084 76.191V76.014L156.199 74.952L156.376 76.191L156.553 76.545L158.146 77.253L157.261 76.191H157.084ZM156.022 78.669L156.73 80.439L156.199 76.722L155.845 76.545L154.075 76.899L154.429 80.97L156.022 78.669ZM154.783 84.333L156.907 83.094L156.73 81.855L154.783 82.917V84.333ZM172.306 92.829L174.253 87.696L170.359 88.227L170.182 88.581L172.306 92.829ZM147.349 91.944L151.42 93.006L151.597 92.829L148.765 92.121L146.287 89.112L145.756 89.997L147.349 91.944ZM136.198 93.183H137.26L134.428 92.298L134.782 92.829L136.198 93.183ZM171.952 99.378L173.014 102.918L172.483 109.113L174.784 113.007V112.83L172.66 109.29L173.368 102.741L172.483 100.086L167.704 92.829L165.58 94.599L163.279 94.245L166.819 99.732L167.173 99.378L167.35 100.086L171.952 99.378ZM150.535 97.077L150.712 97.431L157.261 99.732L156.376 98.67L149.827 96.369L149.473 96.9L150.535 97.254V97.077ZM141.685 116.37L144.694 119.91L151.774 121.68L145.756 128.052L145.579 129.999L147.526 130.353L147.88 126.636L152.659 121.68L153.19 120.441L153.013 120.264H150.712V119.025L148.588 118.494L145.579 114.954L147.172 109.644L145.402 105.75L151.597 104.511L150.889 104.157L150.712 99.909L149.473 96.9L149.827 103.98L142.216 105.573L136.906 105.396L136.552 106.281L142.216 106.458V105.75L143.986 109.644L141.862 108.582V109.113L143.986 110.175L142.393 115.485L141.862 109.113V109.29L135.313 108.936L135.49 109.644L141.154 109.998L141.685 116.37ZM139.915 98.847L137.614 98.139L137.083 98.67L139.561 99.555L139.915 98.847ZM130.357 99.732L129.472 102.21L131.065 105.573L132.304 103.803L130.357 99.732ZM160.801 103.98L164.518 103.095L167.527 103.98L167.35 103.803L164.518 102.918L164.341 103.095L164.164 102.918L162.748 102.387L163.456 101.856L162.217 100.263H160.624L162.748 102.918L156.907 104.334L156.022 105.396H156.199L154.783 109.29L155.314 110.352L156.553 109.644L156.376 109.113L160.801 103.98ZM222.751 121.503L226.114 126.813L227.53 124.158L224.167 119.025L218.149 116.016L213.901 115.839L217.087 111.237L214.609 105.75L220.627 107.166L220.981 103.98L219.919 103.803L219.742 106.104L213.724 104.688L216.202 110.175L213.016 114.777L211.069 115.308L212.308 118.494L212.485 118.317L216.733 118.494L222.751 121.503ZM129.118 108.936L128.941 111.591H130.003L129.118 108.936ZM189.298 125.751L193.723 126.99L197.086 118.848L201.688 119.733L200.272 123.627L203.104 123.981L206.821 119.91L207.352 121.326H208.06L207.529 119.91L208.06 119.733H207.706L209.299 116.016L208.06 116.37L205.405 109.998L202.927 116.193L198.325 115.308L194.962 123.45L190.537 122.211L183.811 123.096H180.802L180.271 125.928H184.342L184.696 126.282L189.298 125.751ZM156.376 115.662L155.668 119.733L157.969 117.255L158.146 115.662L159.562 115.308L157.084 110.529L156.376 112.122L158.146 115.485L154.429 113.715L153.013 114.246L156.376 115.662ZM229.3 113.715L231.424 114.069L231.601 111.945L226.822 111.237L231.07 117.255L229.831 119.733L233.194 119.025L231.778 117.078L231.07 117.255L231.247 116.193L229.3 113.715ZM131.065 114.777L130.888 114.246L130.711 115.485L136.021 116.37L135.844 115.485L131.065 114.777ZM175.492 118.317L180.271 120.618L180.625 118.14L175.315 115.662L175.492 118.317ZM236.911 116.193L233.902 116.724L233.725 119.025L235.495 118.671L236.911 116.193ZM162.04 119.379L162.394 120.087L162.04 119.025L161.863 119.202L162.04 119.379ZM214.432 136.194L213.193 140.973L214.078 140.619L215.14 136.194L211.423 129.822L214.255 124.158L209.122 123.981V123.804L208.945 123.981L213.547 124.158L210.715 129.822L214.432 136.194ZM166.288 136.725L166.111 136.902L167.704 139.203L167.881 136.725L167.35 129.114L165.757 126.459L166.288 133.185L162.925 132.477L157.792 131.946L154.075 132.477L155.491 136.902L161.155 136.194L165.049 136.548L165.58 136.017L165.934 136.725H166.288ZM201.157 141.15L202.927 147.168L203.104 146.991L201.334 141.15L200.626 134.247L200.449 134.424L201.157 141.15ZM189.652 139.734L191.245 140.442L194.077 137.964L193.546 136.194L189.652 139.734ZM169.297 141.15H172.306L173.191 140.442H168.589H168.058H167.527L163.102 140.265L162.571 140.796L169.297 141.15ZM170.536 144.867L174.961 145.398L174.784 144.867L171.067 144.513L170.536 144.867ZM182.749 146.637L183.457 146.46L183.28 146.106L180.802 146.46L178.147 148.938L178.678 150.177H179.032L182.749 146.637ZM157.792 99.909H158.323L160.27 95.484L160.447 99.909L160.27 94.776L161.332 93.891L157.084 93.183L162.394 87.696L163.456 81.678L162.394 78.669L166.819 76.722L171.067 77.607L175.492 71.766L178.678 73.182V77.076L178.501 84.51V88.227V91.767L178.678 99.201L177.616 99.378L173.368 99.909V102.741V102.564L174.784 109.998V110.706L178.501 112.122L185.581 113.715L190.183 113.184L194.785 111.06L197.086 108.051L198.856 104.157L201.157 100.086L205.405 99.024H218.503L220.273 100.263L220.096 102.564H220.981L221.158 101.325L226.114 102.21L225.937 100.086H242.398L246.292 103.98L246.115 108.228L245.23 105.573L245.584 111.768L244.699 115.308L242.221 122.211L238.15 124.512L233.548 122.388L232.132 124.866L236.734 126.99L240.982 124.689L239.212 127.875L234.964 133.716L232.309 136.371L229.654 138.672L223.636 142.743L222.043 136.017L221.512 136.371L222.928 142.743L219.742 144.513L213.016 147.345L211.069 144.867L208.237 139.557V139.734L210.892 144.867L212.839 147.345L205.936 149.292L198.856 150.708L196.732 151.062L196.378 151.239L192.661 151.593L196.024 150.708L196.732 150.354L191.776 151.416V151.593L184.519 151.77L184.873 151.239H183.988L180.448 150.885H178.501L176.731 151.239L173.191 150.708L173.014 150.354L171.598 150.177H169.651L162.748 148.407L159.385 147.345L156.022 146.106L149.65 142.743L143.986 138.672L144.871 136.548L142.216 131.061L139.03 130.353L142.747 137.964L141.862 140.088L136.906 134.955L134.782 132.123L132.835 129.114L131.242 125.928L130.003 122.565L130.18 117.432L128.764 112.476L128.587 114.954L127.525 108.051L127.348 104.511L128.764 100.44L128.941 100.617L128.764 99.732V91.767L131.419 89.643H131.242L137.437 88.227L143.101 86.634L145.579 83.094L143.278 82.563L141.685 84.864L138.676 81.501H138.499L137.083 81.678L141.685 86.811L136.021 88.404L131.419 89.466L131.242 89.643L128.587 91.767V87.873V83.979V80.085L128.764 73.536L127.348 73.359L127.702 69.111L128.941 62.031L129.826 68.757L132.127 72.651L134.251 73.005L131.242 67.695L133.72 67.518L133.189 66.987L132.658 60.084L138.499 62.739L140.623 60.969L140.977 62.916L143.809 61.854L140.977 63.978L141.331 67.695L144.34 70.704L141.154 71.235V71.412V73.005L147.526 71.943L145.933 77.784L146.818 77.961L149.473 77.43L151.066 72.12L147.526 71.058L144.517 68.049L143.809 61.323L144.871 61.677L142.924 56.19L146.464 57.606L144.34 52.296L144.163 51.942H143.809L140.8 51.234L143.278 57.606L139.738 56.19L140.269 51.057L136.552 50.349L136.198 54.42L137.437 56.19L136.375 55.836L138.499 61.854L132.658 59.199L131.065 53.004L132.835 53.712L133.72 52.473L132.835 51.411L134.251 47.517L135.667 45.57L135.49 45.039L137.791 42.207L140.092 39.729L145.579 35.127L141.331 41.676L147.349 41.853H147.172L141.862 41.676L145.756 35.835L145.579 35.127L148.588 33.18L151.774 31.587L158.146 28.755L158.677 28.932L154.075 35.481L150.358 36.366L154.429 40.437L154.252 39.906L150.889 36.366L154.075 35.658V35.481L160.447 33.711H161.155L159.385 28.932L160.978 33.18L154.606 34.95L159.208 28.401L159.385 28.578L162.394 27.693L165.757 26.631L172.837 25.392L175.846 24.861H182.395L179.563 28.401L176.2 25.215L174.076 28.755L176.377 33.888H178.324L184.165 36.189L180.979 28.755L183.103 24.861L186.112 27.693L188.059 25.038L191.068 24.507L193.9 25.038H194.962L194.785 25.215L198.325 25.923L199.387 26.985L203.458 27.162L205.051 26.1L208.591 26.985L212.131 27.87L212.308 29.109H212.485L212.308 28.401L216.556 29.994L219.211 30.879L222.397 32.472L224.521 33.711L225.052 32.649L227.353 35.304L228.238 36.012L228.592 31.587L232.486 35.304L231.601 33.888L236.734 38.844L240.274 43.8L240.628 44.331L240.982 44.862H240.805L241.867 46.986L243.283 50.349L245.053 57.429L245.407 60.969L245.584 64.509L241.69 68.403H215.671L214.432 68.757L215.671 73.182L220.804 71.766L216.556 73.536H210.007L208.06 67.872L211.6 68.226L210.715 64.686V64.863L204.343 64.332L203.635 61.854L202.219 62.031L203.812 67.341H204.343L206.29 73.005L201.865 71.766L200.095 68.403H199.387L197.44 63.801V64.332L199.741 70.173L197.794 65.925L197.44 64.332L190.891 60.969L186.466 60.615L179.563 62.031L179.917 65.748L180.802 65.925L179.563 73.182L178.324 65.571L177.439 65.394L176.731 63.093L174.607 65.571L174.076 60.438H173.545L170.536 62.562H171.421L172.483 65.394L173.722 73.182L170.536 71.766L169.828 69.819L165.757 75.129L161.509 74.244L159.739 75.129L159.208 77.961L160.801 78.669L158.323 82.386L159.562 81.678L158.5 87.696L153.19 93.183L152.305 93.006L152.659 93.36L160.093 94.599L157.615 99.909H157.792ZM162.925 65.394L164.164 65.217L165.226 62.562H164.341L163.987 62.385L162.925 65.394Z" fill="black"/>
</g>
<defs>
<clipPath id="clip0_58_14">
<rect width="251" height="169" fill="white"/>
</clipPath>
</defs>
</svg>
